<?xml version="1.0" encoding="utf-8"?>
<!-- Generator: Adobe Illustrator 27.5.0, SVG Export Plug-In . SVG Version: 6.00 Build 0)  -->
<svg version="1.1" id="Layer_2" xmlns="http://www.w3.org/2000/svg" xmlns:xlink="http://www.w3.org/1999/xlink" x="0px" y="0px"
	 viewBox="0 0 1500 1500" style="enable-background:new 0 0 1500 1500;" xml:space="preserve">
<g>
	<g>
		<rect x="237.208" y="507.699" style="fill:#DEC399;" width="78.199" height="735.086"/>
		<g>
			<g>
				<rect x="273.932" y="388.406" style="fill:#E5833F;" width="3.708" height="11.67"/>
				<rect x="274.56" y="377.822" style="fill:#E5833F;" width="2.451" height="11.67"/>
				<rect x="274.907" y="368.063" style="fill:#E5833F;" width="1.758" height="11.67"/>
				<path style="fill:#AC527F;" d="M281.086,402.818h-10.183v0.105c-19.655,23.086-63.735,42.389-34.362,74.885h-1.776v6.365h2.707
					h77.938h1.904v-6.365h-1.775C344.956,445.266,300.696,425.951,281.086,402.818z"/>
				<path style="opacity:0.2;fill:#404041;" d="M276.011,402.818h-5.108v0.105c-19.655,23.086-63.735,42.389-34.362,74.885h-1.776
					v6.365h2.707h38.539V402.818z"/>
				<rect x="237.472" y="484.174" style="fill:#DEC399;" width="77.938" height="17.766"/>
				<rect x="234.765" y="477.809" style="fill:#F89E45;" width="82.549" height="6.365"/>
				<path style="fill:#F89E45;" d="M278.787,398.98h-5.552c-1.288,0-2.332,1.045-2.332,2.334v1.504h10.217v-1.504
					C281.12,400.025,280.075,398.98,278.787,398.98z"/>
				<rect x="274.907" y="368.658" style="opacity:0.2;fill:#404041;" width="1.758" height="1.838"/>
				<rect x="274.56" y="380.385" style="opacity:0.2;fill:#404041;" width="2.451" height="1.84"/>
				<rect x="273.932" y="393.795" style="opacity:0.2;fill:#404041;" width="3.708" height="1.838"/>
				<path style="fill:#F89E45;" d="M281.267,366.049c-5.369,0-9.723-4.353-9.723-9.721c0-1.383,0.293-2.695,0.814-3.887
					c-2.439,1.766-4.033,4.629-4.033,7.871c0,5.371,4.353,9.721,9.722,9.721c3.986,0,7.409-2.402,8.909-5.836
					C285.354,365.357,283.394,366.049,281.267,366.049z"/>
				<path style="fill:#F89E45;" d="M279.962,377.129c0,2.307-1.869,4.176-4.176,4.176c-2.307,0-4.176-1.869-4.176-4.176
					c0-2.307,1.869-4.176,4.176-4.176C278.093,372.953,279.962,374.822,279.962,377.129z"/>
				<path style="fill:#F89E45;" d="M280.905,389.492c0,2.826-2.293,5.119-5.119,5.119c-2.827,0-5.119-2.293-5.119-5.119
					c0-2.828,2.292-5.119,5.119-5.119C278.612,384.373,280.905,386.664,280.905,389.492z"/>
				<path style="opacity:0.2;fill:#404041;" d="M279.598,402.818h-1.931h-3.283h-1.966v0.105
					c-13.857,23.086-44.935,42.389-24.226,74.885h55.695C324.628,445.266,293.423,425.951,279.598,402.818z M276.454,404.416
					c1.531,5.354,3.475,10.561,5.358,15.609c3.064,8.211,6.232,16.701,7.683,25.959c1.564,9.977,0.934,19.875-1.928,30.225h-23.056
					c-2.86-10.35-3.491-20.248-1.927-30.223c1.451-9.26,4.619-17.75,7.682-25.961c1.883-5.047,3.826-10.258,5.357-15.609H276.454z
					 M243.122,460.502c-0.611-4.75-0.103-9.408,1.555-14.246c3.137-9.148,10.033-17.602,16.703-25.777
					c4.23-5.186,8.6-10.541,12-16.063h0.58c-6.41,22.059-19.471,40.953-11.105,71.793h-13.777
					C245.733,470.791,243.784,465.645,243.122,460.502z M303.003,476.209h-13.779c8.367-30.84-4.695-49.734-11.104-71.793h0.579
					c3.402,5.522,7.77,10.877,12,16.063c6.67,8.176,13.567,16.629,16.703,25.777c1.658,4.836,2.166,9.496,1.555,14.244
					C308.295,465.645,306.345,470.791,303.003,476.209z"/>
			</g>
			<rect x="237.472" y="484.174" style="opacity:0.2;fill:#404041;" width="77.938" height="1.166"/>
		</g>
		<polygon style="fill:#BE6159;" points="323.718,862.328 228.898,862.328 237.208,883.275 315.407,883.275 		"/>
		<rect x="228.898" y="832.924" style="fill:#BE6159;" width="94.82" height="29.404"/>
		<path style="fill:#D67C69;" d="M228.898,832.924v29.404h94.82v-29.404H228.898z M239.399,854.016h-7.666v-18.539h7.666V854.016z
			 M249.585,854.016h-7.667v-18.539h7.667V854.016z M259.77,854.016h-7.667v-18.539h7.667V854.016z M269.954,854.016h-7.667v-18.539
			h7.667V854.016z M280.14,854.016h-7.668v-18.539h7.668V854.016z M290.323,854.016h-7.666v-18.539h7.666V854.016z M300.509,854.016
			h-7.668v-18.539h7.668V854.016z M310.693,854.016h-7.667v-18.539h7.667V854.016z M320.878,854.016h-7.668v-18.539h7.668V854.016z"
			/>
		<g>
			<path style="fill:#BE6159;" d="M234.892,823.238c-3.29,2.672-3.158,6.59-3.158,6.59v3.088l3.158,0.008l3.157-0.008v-3.088
				C238.049,829.828,238.181,825.91,234.892,823.238z"/>
			<path style="fill:#BE6159;" d="M243.175,823.238c-3.29,2.672-3.158,6.59-3.158,6.59v3.088l3.158,0.008l3.156-0.008v-3.088
				C246.331,829.828,246.464,825.91,243.175,823.238z"/>
			<path style="fill:#BE6159;" d="M251.457,823.238c-3.29,2.672-3.157,6.59-3.157,6.59v3.088l3.157,0.008l3.157-0.008v-3.088
				C254.614,829.828,254.746,825.91,251.457,823.238z"/>
			<path style="fill:#BE6159;" d="M259.739,823.238c-3.289,2.672-3.157,6.59-3.157,6.59v3.088l3.157,0.008l3.158-0.008v-3.088
				C262.897,829.828,263.028,825.91,259.739,823.238z"/>
			<path style="fill:#BE6159;" d="M268.022,823.238c-3.289,2.672-3.158,6.59-3.158,6.59v3.088l3.158,0.008l3.158-0.008v-3.088
				C271.181,829.828,271.311,825.91,268.022,823.238z"/>
			<path style="fill:#BE6159;" d="M276.306,823.238c-3.289,2.672-3.158,6.59-3.158,6.59v3.088l3.158,0.008l3.158-0.008v-3.088
				C279.464,829.828,279.595,825.91,276.306,823.238z"/>
			<path style="fill:#BE6159;" d="M284.589,823.238c-3.289,2.672-3.158,6.59-3.158,6.59v3.088l3.158,0.008l3.156-0.008v-3.088
				C287.745,829.828,287.878,825.91,284.589,823.238z"/>
			<path style="fill:#BE6159;" d="M292.871,823.238c-3.289,2.672-3.157,6.59-3.157,6.59v3.088l3.157,0.008l3.157-0.008v-3.088
				C296.028,829.828,296.16,825.91,292.871,823.238z"/>
			<path style="fill:#BE6159;" d="M301.153,823.238c-3.289,2.672-3.156,6.59-3.156,6.59v3.088l3.156,0.008l3.158-0.008v-3.088
				C304.311,829.828,304.442,825.91,301.153,823.238z"/>
			<path style="fill:#BE6159;" d="M309.436,823.238c-3.289,2.672-3.157,6.59-3.157,6.59v3.088l3.157,0.008l3.158-0.008v-3.088
				C312.595,829.828,312.726,825.91,309.436,823.238z"/>
			<path style="fill:#BE6159;" d="M317.72,823.238c-3.289,2.672-3.158,6.59-3.158,6.59v3.088l3.158,0.008l3.157-0.008v-3.088
				C320.877,829.828,321.009,825.91,317.72,823.238z"/>
		</g>
		<polygon style="fill:#BE6159;" points="323.718,659.092 228.898,659.092 237.208,680.039 315.407,680.039 		"/>
		<rect x="228.898" y="629.685" style="fill:#BE6159;" width="94.82" height="29.406"/>
		<path style="fill:#D67C69;" d="M228.898,629.685v29.406h94.82v-29.406H228.898z M239.399,650.777h-7.666V632.24h7.666V650.777z
			 M249.585,650.777h-7.667V632.24h7.667V650.777z M259.77,650.777h-7.667V632.24h7.667V650.777z M269.954,650.777h-7.667V632.24
			h7.667V650.777z M280.14,650.777h-7.668V632.24h7.668V650.777z M290.323,650.777h-7.666V632.24h7.666V650.777z M300.509,650.777
			h-7.668V632.24h7.668V650.777z M310.693,650.777h-7.667V632.24h7.667V650.777z M320.878,650.777h-7.668V632.24h7.668V650.777z"/>
		<g>
			<path style="fill:#BE6159;" d="M234.892,620.002c-3.29,2.672-3.158,6.59-3.158,6.59v3.088l3.158,0.006l3.157-0.006v-3.088
				C238.049,626.592,238.181,622.674,234.892,620.002z"/>
			<path style="fill:#BE6159;" d="M243.175,620.002c-3.29,2.672-3.158,6.59-3.158,6.59v3.088l3.158,0.006l3.156-0.006v-3.088
				C246.331,626.592,246.464,622.674,243.175,620.002z"/>
			<path style="fill:#BE6159;" d="M251.457,620.002c-3.29,2.672-3.157,6.59-3.157,6.59v3.088l3.157,0.006l3.157-0.006v-3.088
				C254.614,626.592,254.746,622.674,251.457,620.002z"/>
			<path style="fill:#BE6159;" d="M259.739,620.002c-3.289,2.672-3.157,6.59-3.157,6.59v3.088l3.157,0.006l3.158-0.006v-3.088
				C262.897,626.592,263.028,622.674,259.739,620.002z"/>
			<path style="fill:#BE6159;" d="M268.022,620.002c-3.289,2.672-3.158,6.59-3.158,6.59v3.088l3.158,0.006l3.158-0.006v-3.088
				C271.181,626.592,271.311,622.674,268.022,620.002z"/>
			<path style="fill:#BE6159;" d="M276.306,620.002c-3.289,2.672-3.158,6.59-3.158,6.59v3.088l3.158,0.006l3.158-0.006v-3.088
				C279.464,626.592,279.595,622.674,276.306,620.002z"/>
			<path style="fill:#BE6159;" d="M284.589,620.002c-3.289,2.672-3.158,6.59-3.158,6.59v3.088l3.158,0.006l3.156-0.006v-3.088
				C287.745,626.592,287.878,622.674,284.589,620.002z"/>
			<path style="fill:#BE6159;" d="M292.871,620.002c-3.289,2.672-3.157,6.59-3.157,6.59v3.088l3.157,0.006l3.157-0.006v-3.088
				C296.028,626.592,296.16,622.674,292.871,620.002z"/>
			<path style="fill:#BE6159;" d="M301.153,620.002c-3.289,2.672-3.156,6.59-3.156,6.59v3.088l3.156,0.006l3.158-0.006v-3.088
				C304.311,626.592,304.442,622.674,301.153,620.002z"/>
			<path style="fill:#BE6159;" d="M309.436,620.002c-3.289,2.672-3.157,6.59-3.157,6.59v3.088l3.157,0.006l3.158-0.006v-3.088
				C312.595,626.592,312.726,622.674,309.436,620.002z"/>
			<path style="fill:#BE6159;" d="M317.72,620.002c-3.289,2.672-3.158,6.59-3.158,6.59v3.088l3.158,0.006l3.157-0.006v-3.088
				C320.877,626.592,321.009,622.674,317.72,620.002z"/>
		</g>
		<rect x="233.77" y="500.375" style="fill:#F89E45;" width="85.073" height="7.324"/>
		<rect x="237.208" y="507.699" style="opacity:0.2;fill:#404041;" width="78.199" height="2.746"/>
		<g>
			<path style="fill:#4B4254;" d="M289.189,588.17H264.72v-36.211c0-6.551,5.309-11.857,11.859-11.857h0.75
				c6.549,0,11.859,5.307,11.859,11.857V588.17z"/>
			<path style="opacity:0.2;fill:#404041;" d="M277.199,540.102h-0.491c-3.402,0-6.473,1.418-8.656,3.695
				c0.205-0.01,0.409-0.016,0.615-0.016h0.49c6.622,0,11.99,5.369,11.99,11.99v32.398h8.041v-36.082
				C289.189,545.467,283.82,540.102,277.199,540.102z"/>
			<path style="fill:#D67C69;" d="M276.954,536.416c-8.777,0-15.918,7.141-15.918,15.916v35.838v3.684h3.684h24.469h3.683v-3.684
				v-35.838C292.871,543.557,285.73,536.416,276.954,536.416z M289.189,588.17H264.72v-35.838c0-6.756,5.477-12.23,12.234-12.23
				c6.756,0,12.234,5.475,12.234,12.23V588.17z"/>
		</g>
		<g>
			<path style="fill:#4B4254;" d="M289.189,772.307H264.72v-36.212c0-6.549,5.309-11.859,11.859-11.859h0.75
				c6.549,0,11.859,5.311,11.859,11.859V772.307z"/>
			<path style="opacity:0.2;fill:#404041;" d="M277.199,724.235h-0.491c-3.402,0-6.473,1.42-8.656,3.699
				c0.205-0.012,0.409-0.016,0.615-0.016h0.49c6.622,0,11.99,5.367,11.99,11.988v32.399h8.041v-36.081
				C289.189,729.602,283.82,724.235,277.199,724.235z"/>
			<path style="fill:#D67C69;" d="M276.954,720.552c-8.777,0-15.918,7.141-15.918,15.918v35.837v3.684h3.684h24.469h3.683v-3.684
				V736.47C292.871,727.692,285.73,720.552,276.954,720.552z M289.189,772.307H264.72V736.47c0-6.756,5.477-12.234,12.234-12.234
				c6.756,0,12.234,5.479,12.234,12.234V772.307z"/>
		</g>
	</g>
	<polygon style="opacity:0.2;fill:#404041;" points="252.887,1242.785 269.067,1242.785 269.067,1031.812 264.775,1031.812 	"/>
	<g>
		<g>
			<g>
				<rect x="433.6" y="788.705" style="fill:#E5833F;" width="7.964" height="25.057"/>
				<rect x="434.95" y="765.977" style="fill:#E5833F;" width="5.264" height="25.056"/>
				<rect x="435.696" y="745.018" style="fill:#E5833F;" width="3.772" height="25.057"/>
				<path style="fill:#AC527F;" d="M448.964,819.648h-21.869v0.227C384.89,869.451,290.235,910.9,353.31,980.679h-3.813v13.67h5.81
					h167.359h4.09v-13.67h-3.815C586.116,910.793,491.073,869.326,448.964,819.648z"/>
				<path style="opacity:0.2;fill:#404041;" d="M438.066,819.648h-10.972v0.227C384.89,869.451,290.235,910.9,353.31,980.679h-3.813
					v13.67h5.81h82.759V819.648z"/>
				<rect x="355.308" y="994.349" style="fill:#F5E2AC;" width="167.359" height="38.149"/>
				<rect x="349.497" y="980.679" style="fill:#F89E45;" width="177.26" height="13.67"/>
				<path style="fill:#4B4254;" d="M378.741,1012.337c0.197-4.459-6.116-7.578-8.087-11.483c-1.97,3.904-8.284,7.024-8.086,11.483
					h-0.003v20.161h0.07h2.228h5.79h5.794h2.225h0.072v-20.161H378.741z"/>
				<path style="opacity:0.2;fill:#404041;" d="M378.741,1012.337c0.197-4.459-6.116-7.578-8.087-11.483
					c-0.711,1.41-1.989,2.715-3.321,4.021c2.619,2.925,6.588,5.626,6.43,9.177h0.004v18.446h2.682h2.225h0.072v-20.161H378.741z"/>
				<path style="fill:#4B4254;" d="M401.503,1012.337c0.197-4.459-6.115-7.578-8.086-11.483c-1.971,3.904-8.285,7.024-8.086,11.483
					h-0.002v20.161h0.069h2.228h5.791h5.793h2.225h0.072v-20.161H401.503z"/>
				<path style="fill:#4B4254;" d="M424.265,1012.337c0.199-4.459-6.115-7.578-8.086-11.483c-1.971,3.904-8.284,7.024-8.086,11.483
					h-0.002v20.161h0.07h2.227h5.791h5.793h2.226h0.071v-20.161H424.265z"/>
				<path style="fill:#4B4254;" d="M447.027,1012.337c0.198-4.459-6.116-7.578-8.087-11.483c-1.969,3.904-8.283,7.024-8.086,11.483
					h-0.002v20.161h0.07h2.227h5.79h5.794h2.226h0.071v-20.161H447.027z"/>
				<path style="fill:#4B4254;" d="M469.79,1012.337c0.197-4.459-6.115-7.578-8.086-11.483c-1.971,3.904-8.285,7.024-8.087,11.483
					h-0.001v20.161h0.069h2.227h5.791h5.793h2.225h0.072v-20.161H469.79z"/>
				<path style="fill:#4B4254;" d="M492.552,1012.337c0.199-4.459-6.115-7.578-8.086-11.483c-1.971,3.904-8.284,7.024-8.086,11.483
					h-0.002v20.161h0.07h2.227h5.791h5.793h2.225h0.072v-20.161H492.552z"/>
				<path style="fill:#4B4254;" d="M515.313,1012.337c0.199-4.459-6.115-7.578-8.086-11.483c-1.971,3.904-8.283,7.024-8.086,11.483
					h-0.002v20.161h0.07h2.227h5.791h5.793h2.226h0.071v-20.161H515.313z"/>
				<path style="fill:#F89E45;" d="M446.704,811.41h-17.275c-1.288,0-2.334,1.043-2.334,2.332v5.906h21.942v-5.906
					C449.037,812.453,447.992,811.41,446.704,811.41z"/>
				<rect x="435.696" y="746.298" style="opacity:0.2;fill:#404041;" width="3.772" height="3.947"/>
				<rect x="434.95" y="771.477" style="opacity:0.2;fill:#404041;" width="5.264" height="3.949"/>
				<rect x="433.6" y="800.271" style="opacity:0.2;fill:#404041;" width="7.964" height="3.947"/>
				<path style="fill:#F89E45;" d="M449.35,740.692c-11.529,0-20.876-9.346-20.876-20.875c0-2.969,0.629-5.789,1.746-8.346
					c-5.238,3.795-8.658,9.941-8.658,16.903c0,11.528,9.347,20.876,20.875,20.876c8.561,0,15.908-5.158,19.131-12.531
					C458.13,739.209,453.917,740.692,449.35,740.692z"/>
				<path style="fill:#F89E45;" d="M446.548,764.485c0,4.953-4.014,8.966-8.966,8.966c-4.952,0-8.966-4.013-8.966-8.966
					c0-4.951,4.014-8.965,8.966-8.965C442.534,755.521,446.548,759.534,446.548,764.485z"/>

					<ellipse transform="matrix(0.9999 -0.0139 0.0139 0.9999 -10.9407 6.1517)" style="fill:#F89E45;" cx="437.582" cy="791.033" rx="10.991" ry="10.992"/>
				<path style="opacity:0.2;fill:#404041;" d="M445.767,819.648h-4.147h-7.051h-4.22v0.227
					c-29.757,49.576-96.491,91.025-52.022,160.804h119.597C542.464,910.793,475.456,869.326,445.767,819.648z M439.017,823.082
					c3.288,11.492,7.461,22.678,11.506,33.52c6.578,17.629,13.381,35.859,16.498,55.742c3.357,21.422,2.005,42.677-4.139,64.901
					h-49.51c-6.145-22.225-7.496-43.479-4.139-64.901c3.117-19.883,9.918-38.113,16.496-55.742
					c4.045-10.842,8.219-22.029,11.506-33.52H439.017z M367.441,943.517c-1.314-10.198-0.22-20.204,3.339-30.591
					c6.734-19.645,21.545-37.799,35.867-55.355c9.084-11.135,18.465-22.635,25.77-34.488h1.243
					c-13.763,47.363-41.81,87.938-23.847,154.163h-29.586C373.05,965.61,368.863,954.56,367.441,943.517z M496.026,977.245h-29.588
					c17.965-66.226-10.082-106.8-23.846-154.163h1.242c7.306,11.856,16.686,23.354,25.77,34.488
					c14.323,17.557,29.134,35.711,35.867,55.355c3.56,10.387,4.652,20.393,3.34,30.591
					C507.39,954.56,503.204,965.61,496.026,977.245z"/>
				<path style="opacity:0.2;fill:#404041;" d="M401.503,1012.337c0.197-4.459-6.115-7.578-8.086-11.483
					c-0.711,1.41-1.989,2.715-3.322,4.021c2.619,2.925,6.588,5.626,6.43,9.177h0.004v18.446h2.682h2.225h0.072v-20.161H401.503z"/>
				<path style="opacity:0.2;fill:#404041;" d="M424.265,1012.337c0.199-4.459-6.115-7.578-8.086-11.483
					c-0.711,1.41-1.988,2.715-3.322,4.021c2.621,2.925,6.588,5.626,6.43,9.177h0.005v18.446h2.681h2.226h0.071v-20.161H424.265z"/>
				<path style="opacity:0.2;fill:#404041;" d="M447.027,1012.337c0.198-4.459-6.116-7.578-8.087-11.483
					c-0.711,1.41-1.988,2.715-3.32,4.021c2.619,2.925,6.588,5.626,6.43,9.177h0.004v18.446h2.681h2.226h0.071v-20.161H447.027z"/>
				<path style="opacity:0.2;fill:#404041;" d="M469.79,1012.337c0.197-4.459-6.115-7.578-8.086-11.483
					c-0.712,1.41-1.99,2.715-3.322,4.021c2.619,2.925,6.588,5.626,6.43,9.177h0.004v18.446h2.682h2.225h0.072v-20.161H469.79z"/>
				<path style="opacity:0.2;fill:#404041;" d="M492.552,1012.337c0.199-4.459-6.115-7.578-8.086-11.483
					c-0.711,1.41-1.99,2.715-3.322,4.021c2.619,2.925,6.588,5.626,6.43,9.177h0.005v18.446h2.681h2.225h0.072v-20.161H492.552z"/>
				<path style="opacity:0.2;fill:#404041;" d="M515.313,1012.337c0.199-4.459-6.115-7.578-8.086-11.483
					c-0.711,1.41-1.988,2.715-3.321,4.021c2.62,2.925,6.587,5.626,6.431,9.177h0.004v18.446h2.68h2.226h0.071v-20.161H515.313z"/>
			</g>

				<rect x="353.587" y="994.349" transform="matrix(-1 -1.224647e-16 1.224647e-16 -1 874.5313 1991.1991)" style="opacity:0.2;fill:#404041;" width="167.357" height="2.502"/>
		</g>

			<rect x="269.067" y="1043.94" transform="matrix(-1 -1.224647e-16 1.224647e-16 -1 874.0274 2286.7256)" style="fill:#F5E2AC;" width="335.893" height="198.845"/>

			<rect x="263.574" y="1053.438" transform="matrix(-1 -1.224647e-16 1.224647e-16 -1 868.5342 2116.49)" style="fill:#F89E45;" width="341.386" height="9.613"/>

			<rect x="269.067" y="1063.052" transform="matrix(-1 -1.224647e-16 1.224647e-16 -1 874.0274 2129.4219)" style="opacity:0.2;fill:#404041;" width="335.893" height="3.318"/>

			<rect x="269.067" y="1219.941" transform="matrix(-1 -1.224647e-16 1.224647e-16 -1 872.8184 2462.7266)" style="fill:#BE6159;" width="334.684" height="22.844"/>
		<g>
			<path style="fill:#4B4254;" d="M538.622,1242.785h43.596v-133.282c0-10.024-8.125-18.146-18.146-18.146h-7.304
				c-10.022,0-18.146,8.123-18.146,18.146V1242.785z"/>
			<path style="fill:#F89E45;" d="M560.419,1084.794c15.639,0,28.361,12.723,28.361,28.359v123.071v6.561h-6.563v-6.561v-25.936
				v-97.136c0-12.037-9.76-21.797-21.799-21.797c-12.038,0-21.797,9.76-21.797,21.797v97.136l0,0v32.496h-6.563v-6.561v-123.071
				C532.06,1097.517,544.781,1084.794,560.419,1084.794z"/>
			<path style="opacity:0.2;fill:#404041;" d="M560.419,1091.356L560.419,1091.356c6.45,0,12.244,2.803,16.234,7.256
				c-0.299-0.012-0.598-0.024-0.899-0.024h-0.001c-12.038,0-21.797,9.762-21.797,21.799v122.398h-15.334v-129.632
				C538.622,1101.116,548.381,1091.356,560.419,1091.356z"/>
		</g>
		<g>
			<path style="fill:#4B4254;" d="M459.411,1242.785h43.596v-133.282c0-10.024-8.123-18.146-18.146-18.146h-7.304
				c-10.021,0-18.146,8.123-18.146,18.146V1242.785z"/>
			<path style="fill:#F89E45;" d="M481.21,1084.794c15.638,0,28.359,12.723,28.359,28.359v123.071v6.561h-6.562v-6.561v-25.936
				v-97.136c0-12.037-9.759-21.797-21.798-21.797c-12.039,0-21.798,9.76-21.798,21.797v97.136h-0.001v32.496h-6.561v-6.561v-123.071
				C452.851,1097.517,465.571,1084.794,481.21,1084.794z"/>
			<path style="opacity:0.2;fill:#404041;" d="M481.21,1091.356L481.21,1091.356c6.449,0,12.243,2.803,16.234,7.256
				c-0.299-0.012-0.599-0.024-0.9-0.024l0,0c-12.039,0-21.798,9.762-21.798,21.799v122.398h-15.335v-129.632
				C459.411,1101.116,469.171,1091.356,481.21,1091.356z"/>
		</g>
		<g>
			<path style="fill:#4B4254;" d="M380.202,1242.785h43.596v-133.282c0-10.024-8.124-18.146-18.147-18.146h-7.303
				c-10.021,0-18.146,8.123-18.146,18.146V1242.785z"/>
			<path style="fill:#F89E45;" d="M402,1084.794c15.638,0,28.36,12.723,28.36,28.359v123.071v6.561h-6.563v-6.561v-25.936v-97.136
				c0-12.037-9.76-21.797-21.798-21.797s-21.798,9.76-21.798,21.797v97.136l0,0v32.496h-6.563v-6.561v-123.071
				C373.64,1097.517,386.362,1084.794,402,1084.794z"/>
			<path style="opacity:0.2;fill:#404041;" d="M402,1091.356L402,1091.356c6.45,0,12.243,2.803,16.233,7.256
				c-0.298-0.012-0.598-0.024-0.898-0.024l0,0c-12.039,0-21.799,9.762-21.799,21.799v122.398h-15.334v-129.632
				C380.202,1101.116,389.962,1091.356,402,1091.356z"/>
		</g>
		<g>
			<path style="fill:#4B4254;" d="M300.993,1242.785h43.596v-133.282c0-10.024-8.125-18.146-18.146-18.146h-7.304
				c-10.022,0-18.146,8.123-18.146,18.146V1242.785z"/>
			<path style="fill:#F89E45;" d="M322.79,1084.794c15.639,0,28.361,12.723,28.361,28.359v123.071v6.561h-6.563v-6.561v-25.936
				v-97.136c0-12.037-9.76-21.797-21.799-21.797c-12.038,0-21.797,9.76-21.797,21.797v97.136l0,0v32.496h-6.563v-6.561v-123.071
				C294.431,1097.517,307.153,1084.794,322.79,1084.794z"/>
			<path style="opacity:0.2;fill:#404041;" d="M322.79,1091.356L322.79,1091.356c6.45,0,12.244,2.803,16.234,7.256
				c-0.299-0.012-0.598-0.024-0.899-0.024h-0.001c-12.038,0-21.797,9.762-21.797,21.799v122.398h-15.334v-129.632
				C300.993,1101.116,310.752,1091.356,322.79,1091.356z"/>
		</g>

			<rect x="266.835" y="1037.876" transform="matrix(-1 -1.224647e-16 1.224647e-16 -1 871.795 2081.8164)" style="fill:#BE6159;" width="338.125" height="6.064"/>

			<rect x="264.775" y="1031.812" transform="matrix(-1 -1.224647e-16 1.224647e-16 -1 869.7354 2069.6875)" style="fill:#BE6159;" width="340.185" height="6.064"/>

			<rect x="266.835" y="1037.876" transform="matrix(-1 -1.224647e-16 1.224647e-16 -1 871.795 2077.9824)" style="opacity:0.2;fill:#404041;" width="338.125" height="2.23"/>

			<rect x="269.067" y="1043.94" transform="matrix(-1 -1.224647e-16 1.224647e-16 -1 874.0274 2090.1133)" style="opacity:0.2;fill:#404041;" width="335.893" height="2.232"/>
	</g>
	<polygon style="opacity:0.2;fill:#404041;" points="588.78,1242.785 604.96,1242.785 604.96,1031.812 601.126,1031.812 	"/>
	<g>
		<rect x="1216.155" y="507.699" style="fill:#DEC399;" width="78.199" height="735.086"/>
		<g>
			<g>
				<rect x="1252.878" y="388.406" style="fill:#E5833F;" width="3.709" height="11.67"/>
				<rect x="1253.507" y="377.822" style="fill:#E5833F;" width="2.451" height="11.67"/>
				<rect x="1253.854" y="368.063" style="fill:#E5833F;" width="1.756" height="11.67"/>
				<path style="fill:#AC527F;" d="M1260.032,402.818h-10.183v0.105c-19.655,23.086-63.735,42.389-34.361,74.885h-1.776v6.365h2.707
					h77.937h1.905v-6.365h-1.776C1323.903,445.266,1279.644,425.951,1260.032,402.818z"/>
				<path style="opacity:0.2;fill:#404041;" d="M1254.958,402.818h-5.108v0.105c-19.655,23.086-63.735,42.389-34.361,74.885h-1.776
					v6.365h2.707h38.539V402.818z"/>
				<rect x="1216.419" y="484.174" style="fill:#DEC399;" width="77.937" height="17.766"/>
				<rect x="1213.712" y="477.809" style="fill:#F89E45;" width="82.549" height="6.365"/>
				<path style="fill:#F89E45;" d="M1257.733,398.98h-5.551c-1.289,0-2.333,1.045-2.333,2.334v1.504h10.218v-1.504
					C1260.067,400.025,1259.022,398.98,1257.733,398.98z"/>
				<rect x="1253.854" y="368.658" style="opacity:0.2;fill:#404041;" width="1.756" height="1.838"/>
				<rect x="1253.507" y="380.385" style="opacity:0.2;fill:#404041;" width="2.451" height="1.84"/>
				<rect x="1252.878" y="393.795" style="opacity:0.2;fill:#404041;" width="3.709" height="1.838"/>
				<path style="fill:#F89E45;" d="M1260.213,366.049c-5.369,0-9.722-4.353-9.722-9.721c0-1.383,0.293-2.695,0.813-3.887
					c-2.438,1.766-4.031,4.629-4.031,7.871c0,5.371,4.352,9.721,9.721,9.721c3.987,0,7.408-2.402,8.908-5.836
					C1264.302,365.357,1262.341,366.049,1260.213,366.049z"/>
				<path style="fill:#F89E45;" d="M1258.907,377.129c0,2.307-1.869,4.176-4.175,4.176s-4.175-1.869-4.175-4.176
					c0-2.307,1.869-4.176,4.175-4.176S1258.907,374.822,1258.907,377.129z"/>
				<path style="fill:#F89E45;" d="M1259.851,389.492c0,2.826-2.291,5.119-5.118,5.119s-5.118-2.293-5.118-5.119
					c0-2.828,2.291-5.119,5.118-5.119S1259.851,386.664,1259.851,389.492z"/>
				<path style="opacity:0.2;fill:#404041;" d="M1258.544,402.818h-1.931h-3.283h-1.966v0.105
					c-13.857,23.086-44.935,42.389-24.225,74.885h55.694C1303.575,445.266,1272.37,425.951,1258.544,402.818z M1255.401,404.416
					c1.531,5.354,3.475,10.561,5.357,15.609c3.064,8.211,6.232,16.701,7.684,25.959c1.563,9.977,0.934,19.875-1.928,30.225h-23.057
					c-2.861-10.35-3.49-20.248-1.927-30.223c1.452-9.26,4.619-17.75,7.683-25.961c1.883-5.047,3.826-10.258,5.357-15.609H1255.401z
					 M1222.069,460.502c-0.611-4.75-0.104-9.408,1.555-14.246c3.137-9.148,10.033-17.602,16.703-25.777
					c4.23-5.186,8.599-10.541,12-16.063h0.579c-6.409,22.059-19.47,40.953-11.104,71.793h-13.778
					C1224.681,470.791,1222.731,465.645,1222.069,460.502z M1281.95,476.209h-13.779c8.365-30.84-4.695-49.734-11.105-71.793h0.58
					c3.4,5.522,7.77,10.877,12,16.063c6.67,8.176,13.566,16.629,16.703,25.777c1.658,4.836,2.166,9.496,1.555,14.244
					C1287.241,465.645,1285.292,470.791,1281.95,476.209z"/>
			</g>
			<rect x="1216.419" y="484.174" style="opacity:0.2;fill:#404041;" width="77.937" height="1.166"/>
		</g>
		<polygon style="fill:#BE6159;" points="1302.664,862.328 1207.845,862.328 1216.155,883.275 1294.354,883.275 		"/>
		<rect x="1207.845" y="832.924" style="fill:#BE6159;" width="94.819" height="29.404"/>
		<path style="fill:#D67C69;" d="M1207.845,832.924v29.404h94.819v-29.404H1207.845z M1218.347,854.016h-7.667v-18.539h7.667
			V854.016z M1228.532,854.016h-7.668v-18.539h7.668V854.016z M1238.716,854.016h-7.666v-18.539h7.666V854.016z M1248.901,854.016
			h-7.668v-18.539h7.668V854.016z M1259.085,854.016h-7.666v-18.539h7.666V854.016z M1269.271,854.016h-7.667v-18.539h7.667V854.016
			z M1279.456,854.016h-7.668v-18.539h7.668V854.016z M1289.64,854.016h-7.667v-18.539h7.667V854.016z M1299.825,854.016h-7.668
			v-18.539h7.668V854.016z"/>
		<g>
			<path style="fill:#BE6159;" d="M1213.838,823.238c-3.289,2.672-3.157,6.59-3.157,6.59v3.088l3.157,0.008l3.157-0.008v-3.088
				C1216.995,829.828,1217.128,825.91,1213.838,823.238z"/>
			<path style="fill:#BE6159;" d="M1222.12,823.238c-3.289,2.672-3.156,6.59-3.156,6.59v3.088l3.156,0.008l3.158-0.008v-3.088
				C1225.278,829.828,1225.41,825.91,1222.12,823.238z"/>
			<path style="fill:#BE6159;" d="M1230.403,823.238c-3.289,2.672-3.157,6.59-3.157,6.59v3.088l3.157,0.008l3.158-0.008v-3.088
				C1233.562,829.828,1233.692,825.91,1230.403,823.238z"/>
			<path style="fill:#BE6159;" d="M1238.687,823.238c-3.289,2.672-3.158,6.59-3.158,6.59v3.088l3.158,0.008l3.158-0.008v-3.088
				C1241.845,829.828,1241.976,825.91,1238.687,823.238z"/>
			<path style="fill:#BE6159;" d="M1246.97,823.238c-3.289,2.672-3.158,6.59-3.158,6.59v3.088l3.158,0.008l3.157-0.008v-3.088
				C1250.127,829.828,1250.259,825.91,1246.97,823.238z"/>
			<path style="fill:#BE6159;" d="M1255.253,823.238c-3.29,2.672-3.158,6.59-3.158,6.59v3.088l3.158,0.008l3.156-0.008v-3.088
				C1258.409,829.828,1258.542,825.91,1255.253,823.238z"/>
			<path style="fill:#BE6159;" d="M1263.535,823.238c-3.29,2.672-3.157,6.59-3.157,6.59v3.088l3.157,0.008l3.157-0.008v-3.088
				C1266.692,829.828,1266.824,825.91,1263.535,823.238z"/>
			<path style="fill:#BE6159;" d="M1271.817,823.238c-3.289,2.672-3.157,6.59-3.157,6.59v3.088l3.157,0.008l3.158-0.008v-3.088
				C1274.976,829.828,1275.106,825.91,1271.817,823.238z"/>
			<path style="fill:#BE6159;" d="M1280.101,823.238c-3.289,2.672-3.157,6.59-3.157,6.59v3.088l3.157,0.008l3.158-0.008v-3.088
				C1283.259,829.828,1283.39,825.91,1280.101,823.238z"/>
			<path style="fill:#BE6159;" d="M1288.384,823.238c-3.289,2.672-3.158,6.59-3.158,6.59v3.088l3.158,0.008l3.157-0.008v-3.088
				C1291.541,829.828,1291.673,825.91,1288.384,823.238z"/>
			<path style="fill:#BE6159;" d="M1296.667,823.238c-3.289,2.672-3.158,6.59-3.158,6.59v3.088l3.158,0.008l3.156-0.008v-3.088
				C1299.823,829.828,1299.956,825.91,1296.667,823.238z"/>
		</g>
		<polygon style="fill:#BE6159;" points="1302.664,659.092 1207.845,659.092 1216.155,680.039 1294.354,680.039 		"/>
		<rect x="1207.845" y="629.685" style="fill:#BE6159;" width="94.819" height="29.406"/>
		<path style="fill:#D67C69;" d="M1207.845,629.685v29.406h94.819v-29.406H1207.845z M1218.347,650.777h-7.667V632.24h7.667V650.777
			z M1228.532,650.777h-7.668V632.24h7.668V650.777z M1238.716,650.777h-7.666V632.24h7.666V650.777z M1248.901,650.777h-7.668
			V632.24h7.668V650.777z M1259.085,650.777h-7.666V632.24h7.666V650.777z M1269.271,650.777h-7.667V632.24h7.667V650.777z
			 M1279.456,650.777h-7.668V632.24h7.668V650.777z M1289.64,650.777h-7.667V632.24h7.667V650.777z M1299.825,650.777h-7.668V632.24
			h7.668V650.777z"/>
		<g>
			<path style="fill:#BE6159;" d="M1213.838,620.002c-3.289,2.672-3.157,6.59-3.157,6.59v3.088l3.157,0.006l3.157-0.006v-3.088
				C1216.995,626.592,1217.128,622.674,1213.838,620.002z"/>
			<path style="fill:#BE6159;" d="M1222.12,620.002c-3.289,2.672-3.156,6.59-3.156,6.59v3.088l3.156,0.006l3.158-0.006v-3.088
				C1225.278,626.592,1225.41,622.674,1222.12,620.002z"/>
			<path style="fill:#BE6159;" d="M1230.403,620.002c-3.289,2.672-3.157,6.59-3.157,6.59v3.088l3.157,0.006l3.158-0.006v-3.088
				C1233.562,626.592,1233.692,622.674,1230.403,620.002z"/>
			<path style="fill:#BE6159;" d="M1238.687,620.002c-3.289,2.672-3.158,6.59-3.158,6.59v3.088l3.158,0.006l3.158-0.006v-3.088
				C1241.845,626.592,1241.976,622.674,1238.687,620.002z"/>
			<path style="fill:#BE6159;" d="M1246.97,620.002c-3.289,2.672-3.158,6.59-3.158,6.59v3.088l3.158,0.006l3.157-0.006v-3.088
				C1250.127,626.592,1250.259,622.674,1246.97,620.002z"/>
			<path style="fill:#BE6159;" d="M1255.253,620.002c-3.29,2.672-3.158,6.59-3.158,6.59v3.088l3.158,0.006l3.156-0.006v-3.088
				C1258.409,626.592,1258.542,622.674,1255.253,620.002z"/>
			<path style="fill:#BE6159;" d="M1263.535,620.002c-3.29,2.672-3.157,6.59-3.157,6.59v3.088l3.157,0.006l3.157-0.006v-3.088
				C1266.692,626.592,1266.824,622.674,1263.535,620.002z"/>
			<path style="fill:#BE6159;" d="M1271.817,620.002c-3.289,2.672-3.157,6.59-3.157,6.59v3.088l3.157,0.006l3.158-0.006v-3.088
				C1274.976,626.592,1275.106,622.674,1271.817,620.002z"/>
			<path style="fill:#BE6159;" d="M1280.101,620.002c-3.289,2.672-3.157,6.59-3.157,6.59v3.088l3.157,0.006l3.158-0.006v-3.088
				C1283.259,626.592,1283.39,622.674,1280.101,620.002z"/>
			<path style="fill:#BE6159;" d="M1288.384,620.002c-3.289,2.672-3.158,6.59-3.158,6.59v3.088l3.158,0.006l3.157-0.006v-3.088
				C1291.541,626.592,1291.673,622.674,1288.384,620.002z"/>
			<path style="fill:#BE6159;" d="M1296.667,620.002c-3.289,2.672-3.158,6.59-3.158,6.59v3.088l3.158,0.006l3.156-0.006v-3.088
				C1299.823,626.592,1299.956,622.674,1296.667,620.002z"/>
		</g>
		<rect x="1212.718" y="500.375" style="fill:#F89E45;" width="85.072" height="7.324"/>
		<rect x="1216.155" y="507.699" style="opacity:0.2;fill:#404041;" width="78.199" height="2.746"/>
		<g>
			<path style="fill:#4B4254;" d="M1268.135,588.17h-24.468v-36.211c0-6.551,5.309-11.857,11.859-11.857h0.749
				c6.55,0,11.859,5.307,11.859,11.857V588.17z"/>
			<path style="opacity:0.2;fill:#404041;" d="M1256.146,540.102h-0.49c-3.404,0-6.474,1.418-8.656,3.695
				c0.204-0.01,0.409-0.016,0.615-0.016h0.49c6.621,0,11.989,5.369,11.989,11.99v32.398h8.041v-36.082
				C1268.135,545.467,1262.767,540.102,1256.146,540.102z"/>
			<path style="fill:#D67C69;" d="M1255.901,536.416c-8.777,0-15.918,7.141-15.918,15.916v35.838v3.684h3.684h24.468h3.683v-3.684
				v-35.838C1271.817,543.557,1264.677,536.416,1255.901,536.416z M1268.135,588.17h-24.468v-35.838
				c0-6.756,5.477-12.23,12.234-12.23c6.756,0,12.233,5.475,12.233,12.23V588.17z"/>
		</g>
		<g>
			<path style="fill:#4B4254;" d="M1268.135,772.307h-24.468v-36.212c0-6.549,5.309-11.859,11.859-11.859h0.749
				c6.55,0,11.859,5.311,11.859,11.859V772.307z"/>
			<path style="opacity:0.2;fill:#404041;" d="M1256.146,724.235h-0.49c-3.404,0-6.474,1.42-8.656,3.699
				c0.204-0.012,0.409-0.016,0.615-0.016h0.49c6.621,0,11.989,5.367,11.989,11.988v32.399h8.041v-36.081
				C1268.135,729.602,1262.767,724.235,1256.146,724.235z"/>
			<path style="fill:#D67C69;" d="M1255.901,720.552c-8.777,0-15.918,7.141-15.918,15.918v35.837v3.684h3.684h24.468h3.683v-3.684
				V736.47C1271.817,727.692,1264.677,720.552,1255.901,720.552z M1268.135,772.307h-24.468V736.47
				c0-6.756,5.477-12.234,12.234-12.234c6.756,0,12.233,5.479,12.233,12.234V772.307z"/>
		</g>
	</g>
	<g>
		<rect x="759.472" y="590.658" style="fill:#E5833F;" width="12.602" height="39.65"/>
		<rect x="761.608" y="554.695" style="fill:#E5833F;" width="8.328" height="39.648"/>
		<rect x="762.788" y="521.533" style="fill:#E5833F;" width="5.969" height="39.648"/>
		<path style="fill:#AC527F;" d="M783.78,639.621h-34.6v0.358c-66.781,78.446-216.555,144.029-116.752,254.439h-6.033v21.627h9.197
			h264.807h6.473v-21.627h-6.033C1000.796,783.84,850.411,718.227,783.78,639.621z"/>
		<path style="opacity:0.2;fill:#404041;" d="M766.539,639.621h-17.358v0.358c-66.781,78.446-216.555,144.029-116.752,254.439
			h-6.033v21.627h9.197h130.946V639.621z"/>
		<rect x="635.593" y="916.045" style="fill:#F5E2AC;" width="264.807" height="60.364"/>
		<rect x="626.396" y="894.418" style="fill:#F89E45;" width="280.477" height="21.627"/>
		<path style="fill:#4B4254;" d="M672.669,944.509c0.313-7.054-9.677-11.989-12.795-18.167
			c-3.117,6.178-13.107,11.113-12.795,18.167h-0.002v31.9h0.109h3.525h9.162h9.166h3.521h0.113v-31.9H672.669z"/>
		<path style="opacity:0.2;fill:#404041;" d="M672.669,944.509c0.313-7.054-9.677-11.989-12.795-18.167
			c-1.289,2.553-3.75,4.895-6.174,7.26c4.033,5.101,11.458,9.616,11.187,15.714h0.007v27.094h4.146h3.521h0.113v-31.9H672.669z"/>
		<path style="fill:#4B4254;" d="M708.685,944.509c0.314-7.054-9.676-11.989-12.795-18.167
			c-3.117,6.178-13.107,11.113-12.794,18.167h-0.003v31.9h0.111h3.523h9.162h9.167h3.521h0.114v-31.9H708.685z"/>
		<path style="fill:#4B4254;" d="M744.701,944.509c0.314-7.054-9.677-11.989-12.794-18.167
			c-3.118,6.178-13.109,11.113-12.795,18.167h-0.004v31.9h0.111h3.523h9.164h9.166h3.521h0.113v-31.9H744.701z"/>
		<path style="fill:#4B4254;" d="M780.718,944.509c0.314-7.054-9.677-11.989-12.795-18.167
			c-3.117,6.178-13.107,11.113-12.795,18.167h-0.002v31.9h0.109h3.525h9.162h9.166h3.521h0.113v-31.9H780.718z"/>
		<path style="fill:#4B4254;" d="M816.733,944.509c0.315-7.054-9.676-11.989-12.795-18.167
			c-3.117,6.178-13.107,11.113-12.793,18.167h-0.004v31.9h0.111h3.523h9.162h9.167h3.52h0.114v-31.9H816.733z"/>
		<path style="fill:#4B4254;" d="M852.751,944.509c0.313-7.054-9.678-11.989-12.795-18.167
			c-3.117,6.178-13.107,11.113-12.795,18.167h-0.003v31.9h0.11h3.524h9.163h9.166h3.522h0.113v-31.9H852.751z"/>
		<path style="fill:#4B4254;" d="M888.767,944.509c0.315-7.054-9.676-11.989-12.795-18.167
			c-3.117,6.178-13.107,11.113-12.794,18.167h-0.003v31.9h0.11h3.524h9.162h9.166h3.521h0.114v-31.9H888.767z"/>
		<path style="fill:#F89E45;" d="M781.563,626.586h-30.051c-1.288,0-2.332,1.045-2.332,2.332v10.703h34.717v-10.703
			C783.898,627.631,782.853,626.586,781.563,626.586z"/>
		<rect x="762.788" y="523.558" style="opacity:0.2;fill:#404041;" width="5.969" height="6.246"/>
		<rect x="761.608" y="563.4" style="opacity:0.2;fill:#404041;" width="8.328" height="6.246"/>
		<rect x="759.472" y="608.961" style="opacity:0.2;fill:#404041;" width="12.602" height="6.248"/>
		<path style="fill:#F89E45;" d="M784.392,514.689c-18.242,0-33.031-14.789-33.031-33.031c0-4.697,0.995-9.158,2.764-13.205
			c-8.288,6.002-13.701,15.732-13.701,26.746c0,18.242,14.789,33.031,33.031,33.031c13.545,0,25.172-8.162,30.27-19.828
			C798.284,512.34,791.62,514.689,784.392,514.689z"/>
		<path style="fill:#F89E45;" d="M779.958,552.338c0,7.834-6.351,14.186-14.185,14.186c-7.836,0-14.188-6.352-14.188-14.186
			c0-7.836,6.352-14.188,14.188-14.188C773.607,538.15,779.958,544.502,779.958,552.338z"/>
		<circle style="fill:#F89E45;" cx="765.773" cy="594.344" r="17.393"/>
		<path style="opacity:0.2;fill:#404041;" d="M778.724,639.621h-6.561h-11.156h-6.678v0.358
			c-47.084,78.446-152.678,144.029-82.314,254.439h189.238C931.726,783.84,825.7,718.227,778.724,639.621z M768.042,645.055
			c5.203,18.186,11.807,35.884,18.207,53.036c10.408,27.896,21.171,56.742,26.104,88.202c5.313,33.893,3.172,67.527-6.55,102.693
			h-78.337c-9.722-35.164-11.861-68.801-6.549-102.693c4.932-31.46,15.693-60.306,26.102-88.2
			c6.4-17.154,13.004-34.856,18.206-53.038H768.042z M654.79,835.615c-2.077-16.135-0.35-31.967,5.284-48.402
			c10.654-31.083,34.088-59.808,56.751-87.587c14.373-17.619,29.217-35.815,40.773-54.571h1.969
			c-21.777,74.943-66.156,139.143-37.732,243.932h-46.815C663.663,870.578,657.04,853.092,654.79,835.615z M858.247,888.986h-46.814
			c28.426-104.789-15.955-168.988-37.732-243.932h1.966c11.56,18.758,26.401,36.952,40.776,54.571
			c22.662,27.779,46.098,56.504,56.752,87.587c5.633,16.434,7.361,32.266,5.284,48.402
			C876.229,853.092,869.604,870.576,858.247,888.986z"/>
		<path style="opacity:0.2;fill:#404041;" d="M708.685,944.509c0.314-7.054-9.676-11.989-12.795-18.167
			c-1.287,2.553-3.75,4.895-6.173,7.26c4.033,5.101,11.458,9.616,11.187,15.714h0.006v27.094h4.147h3.521h0.114v-31.9H708.685z"/>
		<path style="opacity:0.2;fill:#404041;" d="M744.701,944.509c0.314-7.054-9.677-11.989-12.794-18.167
			c-1.289,2.553-3.75,4.895-6.174,7.26c4.033,5.101,11.457,9.616,11.186,15.714h0.008v27.094h4.146h3.521h0.113v-31.9H744.701z"/>
		<path style="opacity:0.2;fill:#404041;" d="M780.718,944.509c0.314-7.054-9.677-11.989-12.795-18.167
			c-1.289,2.553-3.75,4.895-6.174,7.26c4.033,5.101,11.459,9.616,11.188,15.714h0.006v27.094h4.147h3.521h0.113v-31.9H780.718z"/>
		<path style="opacity:0.2;fill:#404041;" d="M816.733,944.509c0.315-7.054-9.676-11.989-12.795-18.167
			c-1.287,2.553-3.75,4.895-6.173,7.26c4.034,5.101,11.458,9.616,11.187,15.714h0.006v27.094h4.148h3.52h0.114v-31.9H816.733z"/>
		<path style="opacity:0.2;fill:#404041;" d="M852.751,944.509c0.313-7.054-9.678-11.989-12.795-18.167
			c-1.289,2.553-3.75,4.895-6.174,7.26c4.033,5.101,11.457,9.616,11.187,15.714h0.007v27.094h4.146h3.522h0.113v-31.9H852.751z"/>
		<path style="opacity:0.2;fill:#404041;" d="M888.767,944.509c0.315-7.054-9.676-11.989-12.795-18.167
			c-1.287,2.553-3.75,4.895-6.174,7.26c4.033,5.101,11.459,9.616,11.188,15.714h0.006v27.094h4.146h3.521h0.114v-31.9H888.767z"/>
	</g>
	<rect x="221.774" y="1250.699" style="fill:#B69A8F;" width="1085.188" height="7.912"/>
	<rect x="227.418" y="1242.785" style="fill:#927D74;" width="1073.9" height="7.914"/>
	<rect x="604.902" y="988.396" style="fill:#F5E2C2;" width="327.374" height="254.39"/>
	<path style="fill:#4B4254;" d="M631.284,1082.995v159.79h73.961v-159.79h-0.012c0.904-16.988-27.959-28.87-36.971-43.75
		c-9.006,14.88-37.869,26.762-36.965,43.75H631.284z"/>
	<path style="opacity:0.2;fill:#404041;" d="M668.263,1039.245c-3.68,6.08-10.676,11.66-17.602,17.294
		c11.59,12.405,33.39,23.329,32.601,38.128h0.014v148.118h21.971v-159.79h-0.012
		C706.138,1066.007,677.274,1054.125,668.263,1039.245z"/>
	<path style="fill:#4B4254;" d="M731.573,1082.995v159.79h73.96v-159.79h-0.013c0.905-16.988-27.957-28.87-36.969-43.75
		c-9.007,14.88-37.87,26.762-36.965,43.75H731.573z"/>
	<path style="fill:#4B4254;" d="M831.933,1082.995v159.79h73.961v-159.79h-0.014c0.906-16.988-27.957-28.87-36.969-43.75
		c-9.006,14.88-37.87,26.762-36.965,43.75H831.933z"/>
	<g>
		<rect x="601.126" y="1084.794" style="fill:#F89E45;" width="33.936" height="8.926"/>
		<rect x="601.126" y="1200.145" style="fill:#F89E45;" width="33.936" height="8.924"/>
		<rect x="603.701" y="1209.068" style="fill:#D67C69;" width="28.784" height="33.717"/>
		<rect x="604.902" y="1093.72" style="opacity:0.2;fill:#404041;" width="26.376" height="3.09"/>
		<rect x="603.694" y="1209.068" style="opacity:0.2;fill:#404041;" width="28.791" height="3.092"/>
	</g>
	<g>
		<rect x="701.455" y="1084.794" style="fill:#F89E45;" width="33.935" height="8.926"/>
		<rect x="701.455" y="1200.145" style="fill:#F89E45;" width="33.935" height="8.924"/>
		<rect x="704.03" y="1209.068" style="fill:#D67C69;" width="28.785" height="33.717"/>
		<rect x="705.232" y="1093.72" style="opacity:0.2;fill:#404041;" width="26.375" height="3.09"/>
		<rect x="704.023" y="1209.068" style="opacity:0.2;fill:#404041;" width="28.793" height="3.092"/>
	</g>
	<path style="opacity:0.2;fill:#404041;" d="M768.552,1039.245c-3.682,6.08-10.678,11.66-17.604,17.294
		c11.59,12.405,33.389,23.329,32.602,38.128h0.012v148.118h21.972v-159.79h-0.013
		C806.426,1066.007,777.563,1054.125,768.552,1039.245z"/>
	<path style="opacity:0.2;fill:#404041;" d="M868.911,1039.245c-3.681,6.08-10.678,11.66-17.604,17.294
		c11.59,12.405,33.39,23.329,32.602,38.128h0.012v148.118h21.973v-159.79h-0.014
		C906.786,1066.007,877.923,1054.125,868.911,1039.245z"/>
	<g>
		<rect x="801.765" y="1084.794" style="fill:#F89E45;" width="33.934" height="8.926"/>
		<rect x="801.765" y="1200.145" style="fill:#F89E45;" width="33.934" height="8.924"/>
		<rect x="804.339" y="1209.068" style="fill:#D67C69;" width="28.785" height="33.717"/>
		<rect x="805.541" y="1093.72" style="opacity:0.2;fill:#404041;" width="26.375" height="3.09"/>
		<rect x="804.333" y="1209.068" style="opacity:0.2;fill:#404041;" width="28.791" height="3.092"/>
	</g>
	<g>
		<rect x="902.124" y="1084.794" style="fill:#F89E45;" width="33.935" height="8.926"/>
		<rect x="902.124" y="1200.145" style="fill:#F89E45;" width="33.935" height="8.924"/>
		<rect x="904.698" y="1209.068" style="fill:#D67C69;" width="28.785" height="33.717"/>
		<rect x="905.901" y="1093.72" style="opacity:0.2;fill:#404041;" width="26.375" height="3.09"/>
		<rect x="904.692" y="1209.068" style="opacity:0.2;fill:#404041;" width="28.791" height="3.092"/>
	</g>
	<g>
		<g>
			<g>
				<rect x="1094.581" y="788.705" style="fill:#E5833F;" width="7.965" height="25.057"/>
				<rect x="1095.933" y="765.977" style="fill:#E5833F;" width="5.263" height="25.056"/>
				<rect x="1096.678" y="745.018" style="fill:#E5833F;" width="3.772" height="25.057"/>
				<path style="fill:#AC527F;" d="M1109.945,819.648h-21.868v0.227c-42.205,49.576-136.86,91.025-73.785,160.804h-3.813v13.67
					h5.812h167.358h4.09v-13.67h-3.813C1247.098,910.793,1152.056,869.326,1109.945,819.648z"/>
				<path style="opacity:0.2;fill:#404041;" d="M1099.048,819.648h-10.971v0.227c-42.205,49.576-136.86,91.025-73.785,160.804
					h-3.813v13.67h5.812h82.758V819.648z"/>
				<rect x="1016.29" y="994.349" style="fill:#F5E2AC;" width="167.358" height="38.149"/>
				<rect x="1010.479" y="980.679" style="fill:#F89E45;" width="177.26" height="13.67"/>
				<path style="fill:#4B4254;" d="M1039.723,1012.337c0.198-4.459-6.116-7.578-8.087-11.483c-1.97,3.904-8.283,7.024-8.086,11.483
					h-0.002v20.161h0.07h2.227h5.791h5.794h2.226h0.072v-20.161H1039.723z"/>
				<path style="opacity:0.2;fill:#404041;" d="M1039.723,1012.337c0.198-4.459-6.116-7.578-8.086-11.483
					c-0.712,1.41-1.989,2.715-3.321,4.021c2.619,2.925,6.588,5.626,6.43,9.177h0.004v18.446h2.681h2.226h0.072v-20.161H1039.723z"/>
				<path style="fill:#4B4254;" d="M1062.485,1012.337c0.197-4.459-6.115-7.578-8.086-11.483c-1.971,3.904-8.285,7.024-8.087,11.483
					h-0.001v20.161h0.068h2.229h5.791h5.793h2.225h0.072v-20.161H1062.485z"/>
				<path style="fill:#4B4254;" d="M1085.247,1012.337c0.199-4.459-6.115-7.578-8.086-11.483c-1.971,3.904-8.285,7.024-8.086,11.483
					h-0.002v20.161h0.07h2.227h5.791h5.793h2.225h0.072v-20.161H1085.247z"/>
				<path style="fill:#4B4254;" d="M1108.009,1012.337c0.199-4.459-6.115-7.578-8.086-11.483c-1.97,3.904-8.283,7.024-8.086,11.483
					h-0.002v20.161h0.07h2.227h5.791h5.793h2.227h0.07v-20.161H1108.009z"/>
				<path style="fill:#4B4254;" d="M1130.771,1012.337c0.198-4.459-6.115-7.578-8.086-11.483c-1.97,3.904-8.284,7.024-8.087,11.483
					h-0.002v20.161h0.07h2.228h5.791h5.793h2.226h0.072v-20.161H1130.771z"/>
				<path style="fill:#4B4254;" d="M1153.534,1012.337c0.197-4.459-6.115-7.578-8.086-11.483c-1.971,3.904-8.285,7.024-8.087,11.483
					h-0.001v20.161h0.069h2.228h5.791h5.793h2.225h0.072v-20.161H1153.534z"/>
				<path style="fill:#4B4254;" d="M1176.296,1012.337c0.199-4.459-6.115-7.578-8.086-11.483c-1.971,3.904-8.284,7.024-8.086,11.483
					h-0.002v20.161h0.07h2.227h5.791h5.793h2.225h0.072v-20.161H1176.296z"/>
				<path style="fill:#F89E45;" d="M1107.687,811.41h-17.275c-1.289,0-2.334,1.043-2.334,2.332v5.906h21.941v-5.906
					C1110.019,812.453,1108.974,811.41,1107.687,811.41z"/>
				<rect x="1096.678" y="746.298" style="opacity:0.2;fill:#404041;" width="3.772" height="3.947"/>
				<rect x="1095.933" y="771.477" style="opacity:0.2;fill:#404041;" width="5.263" height="3.949"/>
				<rect x="1094.581" y="800.271" style="opacity:0.2;fill:#404041;" width="7.965" height="3.947"/>
				<path style="fill:#F89E45;" d="M1110.331,740.692c-11.529,0-20.875-9.346-20.875-20.875c0-2.969,0.629-5.789,1.746-8.346
					c-5.238,3.795-8.658,9.941-8.658,16.903c0,11.528,9.346,20.876,20.875,20.876c8.561,0,15.908-5.158,19.13-12.531
					C1119.112,739.209,1114.899,740.692,1110.331,740.692z"/>
				<path style="fill:#F89E45;" d="M1107.53,764.485c0,4.953-4.015,8.966-8.967,8.966c-4.951,0-8.965-4.013-8.965-8.966
					c0-4.951,4.014-8.965,8.965-8.965C1103.516,755.521,1107.53,759.534,1107.53,764.485z"/>
				<path style="fill:#F89E45;" d="M1109.556,791.033c0,6.07-4.921,10.992-10.992,10.992c-6.07,0-10.991-4.922-10.991-10.992
					c0-6.07,4.921-10.992,10.991-10.992C1104.635,780.041,1109.556,784.963,1109.556,791.033z"/>
				<path style="opacity:0.2;fill:#404041;" d="M1106.749,819.648h-4.146h-7.051h-4.221v0.227
					c-29.756,49.576-96.49,91.025-52.021,160.804h119.598C1203.446,910.793,1136.438,869.326,1106.749,819.648z M1099.999,823.082
					c3.288,11.492,7.461,22.678,11.506,33.52c6.578,17.629,13.381,35.859,16.497,55.742c3.358,21.422,2.005,42.677-4.14,64.901
					h-49.508c-6.145-22.225-7.497-43.479-4.139-64.901c3.116-19.883,9.918-38.113,16.496-55.742
					c4.045-10.842,8.219-22.029,11.506-33.52H1099.999z M1028.423,943.517c-1.313-10.198-0.22-20.204,3.34-30.591
					c6.734-19.645,21.543-37.799,35.866-55.355c9.085-11.135,18.466-22.635,25.771-34.488h1.242
					c-13.762,47.363-41.809,87.938-23.846,154.163h-29.587C1034.032,965.61,1029.845,954.56,1028.423,943.517z M1157.008,977.245
					h-29.587c17.965-66.226-10.083-106.8-23.846-154.163h1.242c7.305,11.856,16.686,23.354,25.77,34.488
					c14.322,17.557,29.133,35.711,35.867,55.355c3.561,10.387,4.652,20.393,3.34,30.591
					C1168.372,954.56,1164.185,965.61,1157.008,977.245z"/>
				<path style="opacity:0.2;fill:#404041;" d="M1062.485,1012.337c0.197-4.459-6.115-7.578-8.086-11.483
					c-0.712,1.41-1.99,2.715-3.322,4.021c2.619,2.925,6.588,5.626,6.43,9.177h0.004v18.446h2.682h2.225h0.072v-20.161H1062.485z"/>
				<path style="opacity:0.2;fill:#404041;" d="M1085.247,1012.337c0.199-4.459-6.115-7.578-8.086-11.483
					c-0.711,1.41-1.989,2.715-3.322,4.021c2.62,2.925,6.588,5.626,6.43,9.177h0.004v18.446h2.682h2.225h0.072v-20.161H1085.247z"/>
				<path style="opacity:0.2;fill:#404041;" d="M1108.009,1012.337c0.199-4.459-6.115-7.578-8.086-11.483
					c-0.711,1.41-1.988,2.715-3.321,4.021c2.62,2.925,6.587,5.626,6.43,9.177h0.004v18.446h2.681h2.227h0.07v-20.161H1108.009z"/>
				<path style="opacity:0.2;fill:#404041;" d="M1130.771,1012.337c0.198-4.459-6.115-7.578-8.086-11.483
					c-0.712,1.41-1.989,2.715-3.321,4.021c2.619,2.925,6.588,5.626,6.43,9.177h0.004v18.446h2.681h2.226h0.072v-20.161H1130.771z"/>
				<path style="opacity:0.2;fill:#404041;" d="M1153.534,1012.337c0.197-4.459-6.115-7.578-8.086-11.483
					c-0.712,1.41-1.99,2.715-3.322,4.021c2.619,2.925,6.588,5.626,6.43,9.177h0.004v18.446h2.682h2.225h0.072v-20.161H1153.534z"/>
				<path style="opacity:0.2;fill:#404041;" d="M1176.296,1012.337c0.199-4.459-6.115-7.578-8.086-11.483
					c-0.711,1.41-1.989,2.715-3.322,4.021c2.62,2.925,6.588,5.626,6.431,9.177h0.004v18.446h2.681h2.225h0.072v-20.161H1176.296z"/>
			</g>
			<rect x="1016.29" y="994.349" style="opacity:0.2;fill:#404041;" width="167.358" height="2.502"/>
		</g>
		<rect x="932.276" y="1043.94" style="fill:#F5E2AC;" width="335.893" height="198.845"/>
		<rect x="932.276" y="1053.438" style="fill:#F89E45;" width="341.385" height="9.613"/>
		<rect x="932.276" y="1063.052" style="opacity:0.2;fill:#404041;" width="335.893" height="3.318"/>
		<rect x="933.483" y="1219.941" style="fill:#BE6159;" width="334.686" height="22.844"/>
		<g>
			<path style="fill:#4B4254;" d="M998.614,1242.785h-43.596v-133.282c0-10.024,8.123-18.146,18.146-18.146h7.303
				c10.022,0,18.147,8.123,18.147,18.146V1242.785z"/>
			<path style="fill:#F89E45;" d="M976.815,1084.794c-15.637,0-28.359,12.723-28.359,28.359v123.071v6.561h6.563v-6.561v-25.936
				v-97.136c0-12.037,9.759-21.797,21.797-21.797c12.039,0,21.799,9.76,21.799,21.797v97.136l0,0v32.496h6.563v-6.561v-123.071
				C1005.177,1097.517,992.454,1084.794,976.815,1084.794z"/>
			<path style="opacity:0.2;fill:#404041;" d="M976.816,1091.356L976.816,1091.356c-6.45,0-12.243,2.803-16.234,7.256
				c0.298-0.012,0.598-0.024,0.9-0.024l0,0c12.039,0,21.799,9.762,21.799,21.799v122.398h15.334v-129.632
				C998.614,1101.116,988.854,1091.356,976.816,1091.356z"/>
		</g>
		<g>
			<path style="fill:#4B4254;" d="M1077.823,1242.785h-43.596v-133.282c0-10.024,8.125-18.146,18.146-18.146h7.303
				c10.022,0,18.146,8.123,18.146,18.146V1242.785z"/>
			<path style="fill:#F89E45;" d="M1056.026,1084.794c-15.639,0-28.361,12.723-28.361,28.359v123.071v6.561h6.563v-6.561v-25.936
				v-97.136c0-12.037,9.76-21.797,21.799-21.797c12.037,0,21.797,9.76,21.797,21.797v97.136l0,0v32.496h6.563v-6.561v-123.071
				C1084.386,1097.517,1071.663,1084.794,1056.026,1084.794z"/>
			<path style="opacity:0.2;fill:#404041;" d="M1056.026,1091.356L1056.026,1091.356c-6.451,0-12.244,2.803-16.234,7.256
				c0.299-0.012,0.598-0.024,0.898-0.024h0.001c12.038,0,21.798,9.762,21.798,21.799v122.398h15.334v-129.632
				C1077.823,1101.116,1068.063,1091.356,1056.026,1091.356z"/>
		</g>
		<g>
			<path style="fill:#4B4254;" d="M1157.033,1242.785h-43.597v-133.282c0-10.024,8.125-18.146,18.146-18.146h7.304
				c10.022,0,18.146,8.123,18.146,18.146V1242.785z"/>
			<path style="fill:#F89E45;" d="M1135.235,1084.794c-15.639,0-28.36,12.723-28.36,28.359v123.071v6.561h6.562v-6.561v-25.936
				v-97.136c0-12.037,9.76-21.797,21.799-21.797s21.797,9.76,21.797,21.797v97.136h0.001v32.496h6.562v-6.561v-123.071
				C1163.595,1097.517,1150.873,1084.794,1135.235,1084.794z"/>
			<path style="opacity:0.2;fill:#404041;" d="M1135.235,1091.356L1135.235,1091.356c-6.45,0-12.244,2.803-16.234,7.256
				c0.299-0.012,0.598-0.024,0.9-0.024l0,0c12.039,0,21.797,9.762,21.797,21.799v122.398h15.335v-129.632
				C1157.033,1101.116,1147.274,1091.356,1135.235,1091.356z"/>
		</g>
		<g>
			<path style="fill:#4B4254;" d="M1236.243,1242.785h-43.596v-133.282c0-10.024,8.124-18.146,18.146-18.146h7.304
				c10.021,0,18.146,8.123,18.146,18.146V1242.785z"/>
			<path style="fill:#F89E45;" d="M1214.444,1084.794c-15.637,0-28.359,12.723-28.359,28.359v123.071v6.561h6.563v-6.561v-25.936
				v-97.136c0-12.037,9.759-21.797,21.797-21.797c12.039,0,21.799,9.76,21.799,21.797v97.136l0,0v32.496h6.562v-6.561v-123.071
				C1242.805,1097.517,1230.083,1084.794,1214.444,1084.794z"/>
			<path style="opacity:0.2;fill:#404041;" d="M1214.445,1091.356L1214.445,1091.356c-6.45,0-12.243,2.803-16.235,7.256
				c0.299-0.012,0.599-0.024,0.9-0.024l0,0c12.039,0,21.799,9.762,21.799,21.799v122.398h15.334v-129.632
				C1236.243,1101.116,1226.483,1091.356,1214.445,1091.356z"/>
		</g>
		<rect x="932.276" y="1037.876" style="fill:#BE6159;" width="338.123" height="6.064"/>
		<rect x="932.276" y="1031.812" style="fill:#BE6159;" width="340.184" height="6.064"/>
		<rect x="932.276" y="1037.876" style="opacity:0.2;fill:#404041;" width="338.123" height="2.23"/>
		<rect x="932.276" y="1043.94" style="opacity:0.2;fill:#404041;" width="335.893" height="2.232"/>
	</g>
	<rect x="601.126" y="996.907" style="fill:#F89E45;" width="334.926" height="9.729"/>
	<rect x="604.902" y="1006.636" style="opacity:0.2;fill:#404041;" width="327.374" height="3.203"/>
	<rect x="603.103" y="982.341" style="fill:#D67C69;" width="330.973" height="6.064"/>
	<rect x="601.126" y="976.276" style="fill:#D67C69;" width="334.926" height="6.064"/>
	<rect x="603.103" y="982.341" style="opacity:0.2;fill:#404041;" width="330.973" height="2.232"/>
	<rect x="604.902" y="988.405" style="opacity:0.2;fill:#404041;" width="327.374" height="2.232"/>
	<rect x="635.593" y="916.045" style="opacity:0.2;fill:#404041;" width="264.807" height="5.223"/>
</g>
</svg>
