<?xml version="1.0" encoding="iso-8859-1"?>
<!-- Uploaded to: SVG Repo, www.svgrepo.com, Generator: SVG Repo Mixer Tools -->
<svg fill="#000000" height="800px" width="800px" version="1.1" id="Layer_1" xmlns="http://www.w3.org/2000/svg" xmlns:xlink="http://www.w3.org/1999/xlink" 
	 viewBox="0 0 511.999 511.999" xml:space="preserve">
<g>
	<g>
		<path d="M82.865,486.581c-9.517-11.74-16.491-25.693-20.167-40.351c-1.178-4.696-5.938-7.548-10.638-6.371
			c-4.697,1.178-7.549,5.941-6.371,10.638c4.294,17.121,12.44,33.417,23.556,47.128c1.732,2.137,4.263,3.246,6.815,3.246
			c1.94,0,3.893-0.641,5.516-1.958C85.338,495.863,85.915,490.342,82.865,486.581z"/>
	</g>
</g>
<g>
	<g>
		<path d="M215.138,335.38c-3.804,0-7.433,0.76-10.75,2.128V255.42c0-14.817-12.054-26.871-26.871-26.871
			c-3.323,0-6.505,0.61-9.445,1.718c-1.197-13.718-12.739-24.516-26.761-24.516c-14.817,0-26.87,12.054-26.87,26.87v3.035
			c-2.91-1.081-6.055-1.675-9.337-1.675c-14.817,0-26.87,12.054-26.87,26.87v11.466c-2.91-1.081-6.054-1.675-9.335-1.675
			c-14.817,0-26.871,12.054-26.871,26.871v123.326c0,4.842,3.925,8.767,8.767,8.767s8.767-3.925,8.767-8.767V297.513
			c0-5.148,4.188-9.336,9.337-9.336c5.148,0,9.335,4.188,9.335,9.336v79.234c0,4.842,3.925,8.767,8.767,8.767
			s8.767-3.925,8.767-8.767V260.851c0-5.148,4.188-9.335,9.337-9.335c5.148,0,9.335,4.188,9.335,9.335v108.317
			c0,4.842,3.925,8.767,8.767,8.767c4.842,0,8.767-3.925,8.767-8.767V232.622c0-5.148,4.188-9.335,9.336-9.335
			c5.148,0,9.335,4.188,9.335,9.335v22.798v119.642c0,4.842,3.925,8.767,8.767,8.767s8.767-3.925,8.767-8.767V255.42
			c0-5.148,4.188-9.336,9.335-9.336c5.147,0,9.337,4.188,9.337,9.336v158.432c0,4.842,3.925,8.767,8.767,8.767
			c4.842,0,8.767-3.925,8.767-8.767v-50.187c0-5.928,4.822-10.75,10.75-10.75c5.928,0,10.75,4.822,10.75,10.75v63.213
			c0,27.107-19.249,50.853-45.77,56.464c-4.737,1.002-7.765,5.654-6.762,10.392c0.873,4.125,4.513,6.955,8.568,6.954
			c0.601,0,1.211-0.062,1.824-0.192c34.578-7.314,59.676-38.275,59.676-73.619v-63.213
			C243.423,348.068,230.734,335.38,215.138,335.38z"/>
	</g>
</g>
<g>
	<g>
		<path d="M443.365,270.642c-3.281,0-6.426,0.594-9.335,1.675v-11.466c0-14.817-12.054-26.87-26.871-26.87
			c-3.281,0-6.426,0.594-9.335,1.675v-3.035c0-14.817-12.054-26.87-26.871-26.87c-14.023,0-25.564,10.799-26.761,24.517
			c-2.94-1.108-6.123-1.718-9.445-1.718c-14.817,0-26.87,12.054-26.87,26.871v82.088c-3.316-1.368-6.946-2.128-10.75-2.128
			c-15.596,0-28.284,12.688-28.284,28.284v63.213c0,35.342,25.098,66.305,59.676,73.619c0.611,0.13,1.222,0.192,1.824,0.192
			c4.055,0,7.696-2.829,8.568-6.954c1.002-4.738-2.026-9.39-6.762-10.392c-26.521-5.61-45.77-29.356-45.77-56.464v-63.213
			c0-5.928,4.822-10.75,10.75-10.75s10.75,4.822,10.75,10.75v50.187c0,4.842,3.925,8.767,8.767,8.767
			c4.842,0,8.767-3.925,8.767-8.767V255.42c0-5.148,4.188-9.336,9.335-9.336s9.336,4.188,9.336,9.336v119.642
			c0,4.842,3.925,8.767,8.767,8.767c4.842,0,8.767-3.925,8.767-8.767V255.42v-22.798c0-5.148,4.188-9.335,9.335-9.335
			c5.147,0,9.336,4.188,9.336,9.335v93.583c0,4.842,3.925,8.767,8.767,8.767s8.767-3.925,8.767-8.767v-65.353
			c0-5.148,4.188-9.335,9.335-9.335c5.147,0,9.337,4.188,9.337,9.335v115.896c0,4.842,3.925,8.767,8.767,8.767
			s8.767-3.925,8.767-8.767v-79.233c0-5.148,4.188-9.337,9.335-9.337s9.336,4.188,9.336,9.337v123.326
			c0,23.86-8.276,47.207-23.303,65.741c-3.05,3.762-2.472,9.282,1.288,12.331c1.625,1.316,3.577,1.958,5.516,1.957
			c2.552,0,5.083-1.109,6.815-3.245c17.552-21.648,27.218-48.916,27.218-76.784V297.513
			C470.236,282.696,458.182,270.642,443.365,270.642z"/>
	</g>
</g>
<g>
	<g>
		<path d="M389.056,341.399c-4.842,0-8.767,3.925-8.767,8.767v19c0,4.842,3.925,8.767,8.767,8.767s8.767-3.925,8.767-8.767v-19
			C397.824,345.325,393.898,341.399,389.056,341.399z"/>
	</g>
</g>
<g>
	<g>
		<path d="M256.591,11.129c-4.842,0-8.767,3.925-8.767,8.767v108.708c0,4.842,3.925,8.767,8.767,8.767
			c4.842,0,8.767-3.925,8.767-8.767V19.896C265.358,15.054,261.432,11.129,256.591,11.129z"/>
	</g>
</g>
<g>
	<g>
		<path d="M176.383,98.054l-10.26-28.58c-1.635-4.557-6.654-6.926-11.214-5.29c-4.557,1.635-6.925,6.657-5.29,11.214l10.259,28.58
			c1.285,3.579,4.656,5.807,8.253,5.807c0.983,0,1.983-0.167,2.962-0.518C175.65,107.632,178.019,102.611,176.383,98.054z"/>
	</g>
</g>
<g>
	<g>
		<path d="M82.682,129.161L51.227,89.373c-3.002-3.799-8.516-4.443-12.315-1.44s-4.443,8.516-1.44,12.315l31.456,39.788
			c1.73,2.189,4.294,3.33,6.883,3.33c1.904,0,3.823-0.617,5.431-1.89C85.041,138.473,85.685,132.96,82.682,129.161z"/>
	</g>
</g>
<g>
	<g>
		<path d="M105.665,158.233l-7.47-9.449c-3.002-3.798-8.516-4.443-12.315-1.44c-3.797,3.003-4.442,8.516-1.439,12.315l7.47,9.449
			c1.73,2.188,4.294,3.33,6.883,3.33c1.904,0,3.823-0.617,5.431-1.89C108.024,167.545,108.668,162.032,105.665,158.233z"/>
	</g>
</g>
<g>
	<g>
		<path d="M358.272,64.184c-4.557-1.635-9.577,0.732-11.214,5.29l-10.259,28.58c-1.637,4.558,0.732,9.577,5.29,11.214
			c0.978,0.351,1.978,0.518,2.961,0.518c3.596,0,6.967-2.229,8.253-5.807l10.259-28.58
			C365.197,70.842,362.829,65.821,358.272,64.184z"/>
	</g>
</g>
<g>
	<g>
		<path d="M510.396,177.286c-2.792-3.957-8.261-4.9-12.218-2.111l-24.815,17.503c-3.957,2.792-4.901,8.261-2.111,12.218
			c1.708,2.421,4.419,3.715,7.172,3.715c1.746,0,3.51-0.52,5.045-1.604l24.815-17.503
			C512.242,186.713,513.186,181.243,510.396,177.286z"/>
	</g>
</g>
<g>
	<g>
		<path d="M38.3,191.639l-24.258-18.265c-3.868-2.912-9.365-2.137-12.278,1.73c-2.912,3.868-2.138,9.365,1.73,12.278l24.258,18.265
			c1.58,1.189,3.431,1.764,5.266,1.764c2.659,0,5.287-1.206,7.011-3.494C42.942,200.048,42.168,194.551,38.3,191.639z"/>
	</g>
</g>
<g>
	<g>
		<path d="M474.268,87.932c-3.799-3.003-9.311-2.359-12.315,1.44l-9.25,11.7c-3.002,3.799-2.358,9.312,1.441,12.315
			c1.61,1.273,3.527,1.89,5.431,1.89c2.588,0,5.153-1.142,6.883-3.33l9.25-11.7C478.711,96.448,478.067,90.935,474.268,87.932z"/>
	</g>
</g>
<g>
	<g>
		<path d="M450.973,117.398c-3.798-3.003-9.312-2.358-12.315,1.44l-31.143,39.395c-3.002,3.799-2.357,9.312,1.441,12.315
			c1.61,1.273,3.528,1.89,5.431,1.89c2.589,0,5.153-1.142,6.883-3.33l31.143-39.395
			C455.416,125.914,454.771,120.401,450.973,117.398z"/>
	</g>
</g>
</svg>