<?xml version="1.0" standalone="no"?>
<!DOCTYPE svg PUBLIC "-//W3C//DTD SVG 20010904//EN"
 "http://www.w3.org/TR/2001/REC-SVG-20010904/DTD/svg10.dtd">
<svg version="1.0" xmlns="http://www.w3.org/2000/svg"
 width="512.000000pt" height="512.000000pt" viewBox="0 0 512.000000 512.000000"
 preserveAspectRatio="xMidYMid meet">

<g transform="translate(0.000000,512.000000) scale(0.100000,-0.100000)"
fill="#000000" stroke="none">
<path d="M3450 4705 c-223 -223 -410 -405 -415 -405 -6 0 -40 29 -75 65 l-65
65 -195 -6 -195 -6 -582 -582 -583 -581 0 -329 0 -330 -212 -213 -213 -213 53
-52 52 -53 235 235 235 235 0 330 0 330 538 537 537 537 137 3 138 3 42 -43
43 -42 -348 -348 -347 -347 55 -55 55 -54 58 57 58 58 14 -42 c8 -24 31 -64
52 -90 l37 -47 -25 -23 c-33 -31 -71 -113 -79 -170 -12 -80 34 -213 89 -258
14 -12 13 -17 -15 -49 -47 -53 -72 -118 -73 -187 -1 -81 18 -142 64 -203 l38
-50 -28 -27 c-42 -40 -73 -119 -74 -190 -1 -81 18 -142 64 -203 l38 -50 -28
-27 c-73 -70 -98 -231 -52 -324 21 -43 22 -57 22 -313 l0 -268 -30 0 -30 0 0
-75 0 -75 41 0 c35 0 40 -3 34 -17 -16 -41 -25 -136 -25 -261 l0 -134 -935
938 -936 938 -309 -309 -310 -310 0 -837 0 -838 1137 0 1138 0 107 107 108
108 0 -108 0 -107 270 0 270 0 0 363 c0 273 -3 376 -14 415 l-13 52 43 0 44 0
0 75 0 75 -35 0 -35 0 0 265 c0 251 1 267 21 305 49 94 33 234 -38 327 l-35
45 26 27 c98 102 100 285 5 403 l-31 40 25 26 c98 104 102 278 10 399 l-35 45
25 27 c98 103 102 277 10 398 l-35 45 25 27 c54 56 72 109 72 206 0 81 -3 95
-30 144 -34 62 -107 125 -166 142 -21 7 -39 15 -39 18 0 3 229 236 510 516
l510 510 127 -128 128 -127 -470 -470 -470 -470 53 -52 52 -53 553 553 552
552 128 -127 127 -128 -552 -552 -553 -553 53 -52 52 -53 470 470 470 470 127
-128 128 -127 -470 -470 -470 -470 55 -55 55 -55 355 355 355 355 100 -100
100 -100 -895 -895 -895 -895 55 -55 55 -55 948 948 947 947 -155 155 -155
155 117 117 118 118 -183 183 -182 182 80 80 80 80 -233 233 -232 232 -80 -80
-80 -80 -180 180 -180 180 -405 -405z m-594 -1020 c41 -31 69 -101 60 -149 -8
-41 -46 -90 -87 -111 -41 -22 -46 -20 -74 35 -29 58 -33 131 -10 187 30 71 56
80 111 38z m15 -486 c76 -76 56 -193 -43 -245 -40 -21 -45 -18 -73 36 -29 58
-33 131 -10 187 34 81 62 86 126 22z m13 -482 c39 -48 43 -129 10 -174 -24
-32 -80 -73 -100 -73 -24 0 -64 94 -64 150 0 53 19 112 47 142 13 15 19 15 46
5 17 -7 44 -30 61 -50z m0 -470 c39 -48 43 -129 10 -174 -24 -32 -80 -73 -100
-73 -24 0 -64 94 -64 150 0 53 19 112 47 142 13 15 19 15 46 5 17 -7 44 -30
61 -50z m0 -470 c39 -48 43 -129 10 -174 -24 -32 -80 -73 -100 -73 -24 0 -64
94 -64 150 0 53 19 112 47 142 13 15 19 15 46 5 17 -7 44 -30 61 -50z m-14
-602 l0 -195 -45 0 -45 0 0 195 0 195 45 0 45 0 0 -195z m-1452 -28 l52 -53
-58 -57 -58 -57 -54 55 -54 55 54 55 c30 30 57 55 60 55 3 0 29 -24 58 -53z
m177 -177 l49 -49 -40 -47 c-64 -76 -66 -76 -129 -14 l-55 54 52 53 c29 29 57
53 63 53 6 0 33 -22 60 -50z m335 -335 l215 -215 -58 -57 -57 -58 -217 217
-218 218 55 55 c30 30 57 55 60 55 3 0 102 -97 220 -215z m908 163 c38 -32 42
-68 42 -368 0 -283 0 -290 -20 -290 -19 0 -20 7 -20 260 l0 260 -75 0 -75 0
-2 -257 c-3 -236 -4 -258 -20 -261 -17 -3 -18 16 -18 300 0 269 2 306 17 328
9 14 24 30 32 35 39 25 104 22 139 -7z"/>
<path d="M2150 1285 l-175 -175 53 -52 52 -53 175 175 175 175 -53 53 -52 52
-175 -175z"/>
</g>
</svg>
