<?xml version="1.0" standalone="no"?>
<!DOCTYPE svg PUBLIC "-//W3C//DTD SVG 20010904//EN"
 "http://www.w3.org/TR/2001/REC-SVG-20010904/DTD/svg10.dtd">
<svg version="1.0" xmlns="http://www.w3.org/2000/svg"
 width="512.000000pt" height="512.000000pt" viewBox="0 0 512.000000 512.000000"
 preserveAspectRatio="xMidYMid meet">

<g transform="translate(0.000000,512.000000) scale(0.100000,-0.100000)"
fill="#000000" stroke="none">
<path d="M2493 5100 c-22 -13 -45 -44 -72 -99 l-40 -79 -58 -7 c-312 -35 -595
-116 -853 -245 -270 -135 -442 -260 -655 -474 -465 -468 -715 -1072 -715
-1727 0 -316 49 -589 157 -878 44 -119 128 -290 151 -307 44 -34 112 1 112 57
0 16 -16 60 -35 98 l-34 69 30 12 c61 26 78 89 34 130 -24 22 -58 24 -106 6
-41 -17 -159 494 -159 691 l0 43 90 0 c105 0 130 15 130 74 0 57 -35 76 -136
76 l-84 0 0 35 c0 133 51 415 106 588 l37 114 38 -11 c50 -13 91 1 103 35 14
42 0 78 -39 96 -19 9 -35 22 -35 28 0 15 81 171 131 252 47 75 190 267 243
327 l35 38 31 -26 c38 -31 68 -33 104 -5 35 28 35 73 -1 111 -17 17 -23 32
-17 37 54 52 201 167 289 226 104 70 322 191 329 184 2 -2 11 -18 20 -36 20
-41 49 -56 87 -48 43 10 66 57 49 103 -6 19 -8 38 -4 42 25 25 344 105 492
125 l53 7 -112 -225 -112 -224 -123 -41 c-544 -180 -986 -609 -1187 -1152
-223 -602 -119 -1293 273 -1810 388 -511 1021 -798 1654 -750 596 45 1125 353
1451 845 332 501 412 1093 224 1667 -83 251 -306 618 -376 618 -11 0 -32 -9
-47 -21 -44 -34 -36 -70 39 -174 431 -601 446 -1394 37 -2005 l-77 -115 -5
642 c-5 632 -5 642 -26 670 -17 23 -131 73 -670 292 -423 173 -661 265 -684
265 -23 0 -264 -93 -685 -265 -601 -245 -651 -267 -672 -298 l-23 -34 0 -636
-1 -636 -22 29 c-104 137 -212 340 -265 501 -250 756 28 1572 687 2016 57 39
138 88 180 109 90 45 203 92 208 86 2 -2 -43 -99 -101 -215 -77 -152 -106
-221 -106 -247 0 -73 60 -129 135 -127 21 1 144 60 349 166 l317 166 315 -166
c206 -107 327 -165 348 -166 76 -2 136 54 136 126 0 25 -31 98 -105 247 -58
117 -104 214 -101 217 7 8 226 -94 309 -144 43 -26 119 -78 168 -115 101 -77
134 -85 168 -42 48 61 16 103 -174 229 -172 114 -319 185 -495 240 l-86 26
-112 225 c-63 125 -106 224 -99 224 90 0 498 -100 531 -130 4 -5 3 -23 -4 -42
-22 -62 25 -119 87 -103 20 5 55 47 66 79 4 13 198 -90 317 -168 84 -55 160
-113 280 -215 l35 -30 -27 -28 c-37 -39 -38 -84 -2 -112 36 -28 66 -26 104 5
l31 26 35 -38 c53 -60 196 -252 243 -327 50 -81 131 -237 131 -252 0 -6 -16
-19 -35 -28 -39 -18 -53 -54 -39 -96 12 -34 53 -48 103 -35 l38 11 37 -114
c55 -173 106 -455 106 -588 l0 -35 -84 0 c-101 0 -136 -19 -136 -76 0 -60 25
-74 131 -74 l92 0 -7 -92 c-13 -189 -53 -391 -112 -571 -21 -64 -29 -77 -43
-72 -48 19 -82 18 -106 -5 -44 -41 -27 -104 34 -130 l31 -12 -52 -101 c-83
-161 -188 -315 -317 -465 l-54 -63 -28 27 c-79 76 -174 -21 -104 -105 l26 -30
-98 -81 c-54 -45 -143 -112 -199 -150 -101 -67 -302 -180 -321 -180 -6 0 -16
14 -23 30 -24 57 -93 69 -130 23 -21 -27 -22 -39 -5 -99 6 -18 -5 -24 -112
-57 -176 -55 -327 -83 -539 -102 l-72 -6 -4 90 c-5 107 -19 131 -78 131 -59 0
-73 -24 -78 -131 l-5 -90 -76 6 c-192 15 -390 55 -569 113 -73 23 -82 29 -77
47 17 59 16 71 -5 98 -37 46 -106 34 -130 -23 -16 -38 -22 -37 -155 37 -139
77 -273 167 -388 263 l-98 81 26 30 c70 84 -25 181 -104 105 l-28 -27 -59 69
c-33 38 -79 93 -103 121 -39 47 -47 52 -79 49 -43 -4 -78 -44 -69 -80 17 -68
275 -348 452 -491 281 -227 629 -397 980 -480 746 -176 1536 7 2120 488 447
370 741 853 856 1409 75 363 64 762 -30 1127 -226 875 -950 1576 -1833 1773
-92 21 -319 56 -358 56 -6 0 -28 36 -50 80 -45 89 -81 120 -140 120 -19 0 -50
-9 -67 -20z m380 -775 c169 -338 305 -615 302 -615 -3 0 -132 66 -288 147
-241 127 -288 148 -327 148 -39 0 -85 -21 -327 -148 -155 -81 -284 -147 -287
-147 -3 0 132 277 301 615 170 338 310 615 313 615 3 0 143 -277 313 -615z
m-395 -1407 l-3 -143 -570 -231 -570 -232 -3 141 c-1 78 1 143 5 145 4 1 260
106 568 231 308 126 563 230 568 230 4 1 6 -63 5 -141z m750 -94 l562 -229 0
-142 0 -143 -22 9 c-13 5 -130 52 -260 105 -130 53 -245 96 -255 96 -47 -1
-78 -58 -58 -105 11 -27 37 -40 293 -144 155 -63 286 -118 292 -121 7 -4 10
-62 8 -161 l-3 -155 -535 217 c-294 120 -552 225 -572 233 l-38 16 0 155 c0
85 4 155 8 155 4 0 68 -25 141 -55 73 -30 142 -55 153 -55 27 0 68 44 68 73 0
45 -33 66 -200 135 l-165 68 -3 143 c-2 117 0 142 11 138 7 -3 266 -108 575
-233z m-750 -371 l-3 -156 -570 -232 -570 -232 -3 155 c-1 85 -1 157 2 159 7
7 1121 461 1134 462 10 1 12 -33 10 -156z m2 -1029 l0 -717 -83 6 c-334 23
-690 173 -975 410 l-92 78 2 235 3 236 564 229 c310 126 566 231 569 234 3 3
7 5 9 5 2 0 3 -322 3 -716z m770 465 l535 -217 3 -236 2 -235 -89 -75 c-123
-102 -327 -236 -359 -236 -9 0 -12 85 -12 345 0 371 -2 385 -52 411 -74 38
-327 136 -355 137 -44 1 -79 -20 -98 -58 -13 -28 -15 -101 -15 -518 l0 -484
-37 -7 c-21 -3 -59 -6 -85 -6 l-48 0 0 714 0 715 38 -16 c20 -9 278 -114 572
-234z m-172 -320 l102 -41 0 -358 0 -357 -92 -27 c-51 -16 -101 -30 -110 -33
-17 -4 -18 21 -18 426 0 237 3 431 8 431 4 0 53 -18 110 -41z"/>
</g>
</svg>
