<svg width="256" height="250" viewBox="0 0 256 250" fill="none" xmlns="http://www.w3.org/2000/svg">
<circle cx="131" cy="125" r="125" fill="#00C97F"/>
<path d="M26.3523 85.0889C31.1529 72.5014 38.1852 60.8833 47.1112 50.7928" stroke="#1E9870" stroke-width="26"/>
<path d="M138.947 111.546C146.125 115.683 148.59 124.855 144.453 132.033C140.316 139.21 131.144 141.675 123.966 137.538C116.789 133.401 55.6474 80.8483 55.6474 80.8483C55.6474 80.8483 131.77 107.41 138.947 111.546Z" fill="white"/>
<path d="M185.213 228.692L188.772 226.749L183.427 217.739L180.533 219.313L185.213 228.692Z" fill="#C7F5E5"/>
<path d="M178.311 232.013L181.99 230.312L177.249 220.967L174.257 222.35L178.311 232.013Z" fill="#C7F5E5"/>
<path d="M171.21 234.879L174.994 233.423L170.873 223.785L167.797 224.974L171.21 234.879Z" fill="#C7F5E5"/>
<path d="M163.942 237.274L167.808 236.066L164.325 226.181L161.183 227.166L163.942 237.274Z" fill="#C7F5E5"/>
<path d="M156.526 239.191L160.466 238.236L157.635 228.145L154.434 228.919L156.526 239.191Z" fill="#C7F5E5"/>
<path d="M149.005 240.616L153 239.921L150.832 229.668L147.588 230.228L149.005 240.616Z" fill="#C7F5E5"/>
<path d="M141.405 241.542L145.436 241.113L143.945 230.738L140.67 231.087L141.405 241.542Z" fill="#C7F5E5"/>
<path d="M133.758 241.974L137.811 241.808L136.999 231.361L133.711 231.495L133.758 241.974Z" fill="#C7F5E5"/>
<path d="M126.101 241.904L130.154 242.004L130.031 231.527L126.739 231.445L126.101 241.904Z" fill="#C7F5E5"/>
<path d="M118.468 241.33L122.506 241.699L123.069 231.235L119.787 230.94L118.468 241.33Z" fill="#C7F5E5"/>
<path d="M110.884 240.264L114.89 240.896L116.137 230.486L112.884 229.978L110.884 240.264Z" fill="#C7F5E5"/>
<path d="M103.389 238.704L107.346 239.591L109.271 229.288L106.057 228.566L103.389 238.704Z" fill="#C7F5E5"/>
<path d="M96.0143 236.653L99.9018 237.797L102.494 227.643L99.3356 226.714L96.0143 236.653Z" fill="#C7F5E5"/>
<path d="M88.7866 234.124L92.5903 235.523L95.8445 225.563L92.7523 224.425L88.7866 234.124Z" fill="#C7F5E5"/>
<path d="M81.7385 231.131L85.446 232.775L89.3392 223.047L86.3301 221.709L81.7385 231.131Z" fill="#C7F5E5"/>
<path d="M74.9042 227.682L78.4923 229.562L83.0183 220.111L80.1003 218.585L74.9042 227.682Z" fill="#C7F5E5"/>
<path d="M68.3054 223.793L71.7672 225.907L76.9006 216.767L74.0875 215.055L68.3054 223.793Z" fill="#C7F5E5"/>
<path d="M61.9777 219.481L65.2914 221.815L71.0151 213.032L68.3205 211.138L61.9777 219.481Z" fill="#C7F5E5"/>
<path d="M55.9496 214.763L59.1058 217.311L65.3833 208.921L62.8195 206.854L55.9496 214.763Z" fill="#C7F5E5"/>
<path d="M50.2374 209.666L53.2184 212.409L60.0339 204.452L57.6131 202.222L50.2374 209.666Z" fill="#C7F5E5"/>
<path d="M44.8737 204.202L47.67 207.135L54.9914 199.643L52.7231 197.256L44.8737 204.202Z" fill="#C7F5E5"/>
<path d="M39.8789 198.395L42.4741 201.51L50.2707 194.509L48.163 191.977L39.8789 198.395Z" fill="#C7F5E5"/>
<path d="M35.2703 192.28L37.6619 195.556L45.8974 189.081L43.9584 186.417L35.2703 192.28Z" fill="#C7F5E5"/>
<path d="M27.3122 179.211L29.2505 182.772L38.2647 177.424L36.6872 174.534L27.3122 179.211Z" fill="#C7F5E5"/>
<path d="M23.9866 172.312L25.6877 175.99L35.0334 171.249L33.6502 168.257L23.9866 172.312Z" fill="#C7F5E5"/>
<path d="M21.121 165.21L22.581 168.991L32.2154 164.873L31.0262 161.797L21.121 165.21Z" fill="#C7F5E5"/>
<path d="M18.7262 157.942L19.9344 161.808L29.8186 158.326L28.8384 155.18L18.7262 157.942Z" fill="#C7F5E5"/>
<path d="M16.8128 150.523L17.7637 154.467L27.8549 151.636L27.0807 148.434L16.8128 150.523Z" fill="#C7F5E5"/>
<path d="M15.3882 143.002L16.0836 146.998L26.3321 144.833L25.7719 141.588L15.3882 143.002Z" fill="#C7F5E5"/>
<path d="M14.4575 135.405L14.8867 139.436L25.262 137.945L24.9128 134.67L14.4575 135.405Z" fill="#C7F5E5"/>
<path d="M14.0259 127.758L14.1919 131.811L24.6388 131L24.5046 127.711L14.0259 127.758Z" fill="#C7F5E5"/>
<path d="M14.0955 120.102L13.9958 124.155L24.473 124.031L24.5548 120.739L14.0955 120.102Z" fill="#C7F5E5"/>
<path d="M14.6697 112.468L14.3047 116.503L24.7694 117.067L25.0645 113.785L14.6697 112.468Z" fill="#C7F5E5"/>
<path d="M15.7359 104.884L15.1086 108.887L25.5141 110.138L26.022 106.884L15.7359 104.884Z" fill="#C7F5E5"/>
<path d="M17.2961 97.3889L16.4094 101.347L26.7118 103.271L27.4338 100.057L17.2961 97.3889Z" fill="#C7F5E5"/>
<path d="M19.3471 90.0146L18.2028 93.9021L28.3568 96.4947L29.2857 93.3359L19.3471 90.0146Z" fill="#C7F5E5"/>
<path d="M21.8761 82.7869L20.4771 86.5906L30.4416 89.8421L31.5745 86.7526L21.8761 82.7869Z" fill="#C7F5E5"/>
<path d="M24.8688 75.7388L23.2292 79.4436L32.9534 83.3395L34.2915 80.3304L24.8688 75.7388Z" fill="#C7F5E5"/>
<path d="M28.3218 68.9018L26.4376 72.4926L35.8889 77.0186L37.4196 74.0979L28.3218 68.9018Z" fill="#C7F5E5"/>
<path d="M32.2073 62.3057L30.0968 65.7649L39.2327 70.901L40.9489 68.0851L32.2073 62.3057Z" fill="#C7F5E5"/>
<path d="M36.5192 55.978L34.1854 59.2918L42.9678 65.0154L44.8623 62.3208L36.5192 55.978Z" fill="#C7F5E5"/>
<path d="M41.2365 49.9499L38.6933 53.1034L47.0786 59.3836L49.1458 56.8197L41.2365 49.9499Z" fill="#C7F5E5"/>
<path d="M46.3382 44.2349L43.5912 47.2186L51.5482 54.0342L53.7824 51.6106L46.3382 44.2349Z" fill="#C7F5E5"/>
<path d="M51.8018 38.8713L48.8651 41.6703L56.3611 48.989L58.7484 46.7207L51.8018 38.8713Z" fill="#C7F5E5"/>
<path d="M57.6048 33.8792L54.4897 36.4743L61.4908 44.2709L64.0227 42.1632L57.6048 33.8792Z" fill="#C7F5E5"/>
<path d="M63.7196 29.2706L60.4441 31.6622L66.9192 39.8977L69.5833 37.9586L63.7196 29.2706Z" fill="#C7F5E5"/>
<path d="M76.7933 21.3097L73.2319 23.2481L78.5756 32.2649L81.4706 30.6847L76.7933 21.3097Z" fill="#C7F5E5"/>
<path d="M83.6885 17.9868L80.0097 19.6879L84.755 29.031L87.7431 27.6504L83.6885 17.9868Z" fill="#C7F5E5"/>
<path d="M90.7895 15.1213L87.0086 16.5813L91.1313 26.213L94.203 25.0265L90.7895 15.1213Z" fill="#C7F5E5"/>
<path d="M98.062 12.7239L94.1916 13.9347L97.6784 23.8163L100.82 22.8387L98.062 12.7239Z" fill="#C7F5E5"/>
<path d="M105.477 10.8131L101.533 11.764L104.365 21.8552L107.566 21.0809L105.477 10.8131Z" fill="#C7F5E5"/>
<path d="M112.998 9.38841L109.006 10.0812L111.167 20.3323L114.416 19.7694L112.998 9.38841Z" fill="#C7F5E5"/>
<path d="M120.599 8.45521L116.568 8.88445L118.055 19.2624L121.334 18.9105L120.599 8.45521Z" fill="#C7F5E5"/>
<path d="M128.242 8.02618L124.193 8.1895L125 18.6391L128.289 18.5048L128.242 8.02618Z" fill="#C7F5E5"/>
<path d="M135.898 8.09572L131.845 7.99609L131.969 18.4732L135.261 18.5551L135.898 8.09572Z" fill="#C7F5E5"/>
<path d="M143.536 8.66723L139.497 8.30496L138.933 18.7696L142.215 19.0647L143.536 8.66723Z" fill="#C7F5E5"/>
<path d="M151.116 9.73618L147.113 9.10886L145.866 19.5116L149.116 20.0222L151.116 9.73618Z" fill="#C7F5E5"/>
<path d="M158.611 11.2963L154.653 10.4096L152.733 20.7093L155.947 21.4313L158.611 11.2963Z" fill="#C7F5E5"/>
<path d="M165.99 13.3446L162.098 12.203L159.505 22.357L162.664 23.2859L165.99 13.3446Z" fill="#C7F5E5"/>
<path d="M173.217 15.8736L169.409 14.4774L166.158 24.4419L169.252 25.572L173.217 15.8736Z" fill="#C7F5E5"/>
<path d="M180.261 18.869L176.556 17.2293L172.66 26.9536L175.674 28.289L180.261 18.869Z" fill="#C7F5E5"/>
<path d="M187.102 22.3193L183.507 20.4379L178.981 29.8892L181.902 31.4198L187.102 22.3193Z" fill="#C7F5E5"/>
<path d="M193.694 26.2075L190.235 24.097L185.103 33.2303L187.915 34.9491L193.694 26.2075Z" fill="#C7F5E5"/>
<path d="M200.022 30.5195L196.708 28.1857L190.989 36.9653L193.679 38.8625L200.022 30.5195Z" fill="#C7F5E5"/>
<path d="M206.054 35.2341L202.901 32.6909L196.616 41.0789L199.18 43.1461L206.054 35.2341Z" fill="#C7F5E5"/>
<path d="M211.765 40.3386L208.781 37.5916L201.966 45.5485L204.389 47.7827L211.765 40.3386Z" fill="#C7F5E5"/>
<path d="M217.129 45.8021L214.334 42.8628L207.011 50.3615L209.283 52.746L217.129 45.8021Z" fill="#C7F5E5"/>
<path d="M222.125 51.6025L219.526 48.4901L211.729 55.4912L213.841 58.0204L222.125 51.6025Z" fill="#C7F5E5"/>
<path d="M226.729 57.7199L224.342 54.4417L216.102 60.9195L218.041 63.5836L226.729 57.7199Z" fill="#C7F5E5"/>
<path d="M234.694 70.7909L232.752 67.2321L223.739 72.5731L225.315 75.4708L234.694 70.7909Z" fill="#C7F5E5"/>
<path d="M238.013 77.6887L236.312 74.01L226.969 78.7552L228.349 81.7434L238.013 77.6887Z" fill="#C7F5E5"/>
<path d="M240.879 84.7898L239.423 81.0063L229.787 85.1316L230.973 88.2034L240.879 84.7898Z" fill="#C7F5E5"/>
<path d="M243.276 92.0623L242.065 88.1919L232.184 91.6787L233.165 94.8174L243.276 92.0623Z" fill="#C7F5E5"/>
<path d="M245.191 99.4743L244.236 95.5337L234.145 98.3648L234.919 101.566L245.191 99.4743Z" fill="#C7F5E5"/>
<path d="M246.616 106.995L245.923 103.004L235.668 105.168L236.228 108.412L246.616 106.995Z" fill="#C7F5E5"/>
<path d="M247.545 114.599L247.116 110.568L236.738 112.055L237.09 115.334L247.545 114.599Z" fill="#C7F5E5"/>
<path d="M247.974 122.242L247.81 118.193L237.361 119.001L237.495 122.289L247.974 122.242Z" fill="#C7F5E5"/>
<path d="M247.904 129.899L248.004 125.846L237.527 125.969L237.445 129.261L247.904 129.899Z" fill="#C7F5E5"/>
<path d="M247.333 137.536L247.699 133.494L237.234 132.931L236.939 136.213L247.333 137.536Z" fill="#C7F5E5"/>
<path d="M246.264 145.116L246.895 141.11L236.488 139.867L235.98 143.12L246.264 145.116Z" fill="#C7F5E5"/>
<path d="M244.704 152.611L245.593 148.658L235.291 146.733L234.569 149.948L244.704 152.611Z" fill="#C7F5E5"/>
<path d="M242.655 159.99L243.797 156.098L233.643 153.506L232.714 156.664L242.655 159.99Z" fill="#C7F5E5"/>
<path d="M240.126 167.217L241.523 163.41L231.562 160.155L230.428 163.252L240.126 167.217Z" fill="#C7F5E5"/>
<path d="M237.131 174.261L238.775 170.554L229.046 166.661L227.711 169.674L237.131 174.261Z" fill="#C7F5E5"/>
<path d="M233.685 181.1L235.562 177.508L226.111 172.982L224.584 175.9L233.685 181.1Z" fill="#C7F5E5"/>
<path d="M229.792 187.695L231.907 184.233L222.77 179.103L221.055 181.912L229.792 187.695Z" fill="#C7F5E5"/>
<path d="M225.481 194.022L227.814 190.709L219.035 184.989L217.138 187.68L225.481 194.022Z" fill="#C7F5E5"/>
<path d="M220.766 200.054L223.313 196.898L214.921 190.617L212.854 193.18L220.766 200.054Z" fill="#C7F5E5"/>
<path d="M215.666 205.763L218.413 202.779L210.452 195.966L208.221 198.387L215.666 205.763Z" fill="#C7F5E5"/>
<path d="M210.202 211.126L213.137 208.334L205.643 201.009L203.258 203.281L210.202 211.126Z" fill="#C7F5E5"/>
<path d="M204.398 216.125L207.51 213.526L200.509 205.729L197.98 207.841L204.398 216.125Z" fill="#C7F5E5"/>
<path d="M198.28 220.73L201.558 218.342L195.08 210.103L192.416 212.042L198.28 220.73Z" fill="#C7F5E5"/>
<path d="M191.875 224.924L195.299 222.755L183.148 204.436L180.369 206.195L191.875 224.924Z" fill="white"/>
<path d="M70.1249 25.0769L66.7002 27.2459L78.8541 45.5689L81.6378 43.8066L70.1249 25.0769Z" fill="white"/>
<path d="M230.923 64.1254L228.754 60.7006L210.435 72.8519L212.198 75.6356L230.923 64.1254Z" fill="white"/>
<path d="M31.0764 185.875L33.2454 189.3L51.5684 177.146L49.8088 174.366L31.0764 185.875Z" fill="white"/>
<path d="M92.5119 47.0486C92.0976 46.405 91.9812 45.7585 92.1625 45.109C92.3517 44.4545 92.7876 43.9074 93.4704 43.468C94.1454 43.0335 94.8185 42.8722 95.4898 42.984C96.1561 43.0879 96.6938 43.4577 97.103 44.0934C97.5172 44.7369 97.6323 45.3899 97.4482 46.0523C97.2719 46.7096 96.8424 47.258 96.1596 47.6975C95.4847 48.132 94.8115 48.2933 94.1402 48.1815C93.4689 48.0698 92.9261 47.6921 92.5119 47.0486ZM95.8156 44.9387C95.5681 44.5541 95.2806 44.323 94.953 44.2452C94.6204 44.1596 94.3129 44.2077 94.0303 44.3896C93.7557 44.5664 93.5884 44.8239 93.5286 45.1621C93.4637 45.4924 93.5551 45.8498 93.8026 46.2344C94.0451 46.6111 94.3262 46.8409 94.6459 46.9237C94.9734 47.0014 95.2784 46.9494 95.561 46.7675C95.8357 46.5907 96.0054 46.3372 96.0703 46.0068C96.143 45.6714 96.0581 45.3154 95.8156 44.9387Z" fill="#C7F5E5"/>
<path d="M86.3666 53.5514C85.4927 52.1937 85.0515 50.9737 85.043 49.8914C85.0424 48.804 85.6111 47.8941 86.749 47.1616C87.887 46.4291 88.9468 46.2909 89.9284 46.7468C90.9179 47.1976 91.8496 48.1019 92.7236 49.4596C93.6025 50.8252 94.0449 52.0556 94.0506 53.1508C94.0641 54.241 93.5019 55.1523 92.3639 55.8848C91.2259 56.6173 90.1597 56.7541 89.1651 56.2954C88.1784 55.8317 87.2456 54.917 86.3666 53.5514ZM91.099 50.5053C90.7252 49.9246 90.3728 49.4632 90.0417 49.1214C89.7134 48.7666 89.3547 48.5368 88.9654 48.4322C88.584 48.3225 88.1736 48.4091 87.7341 48.692C87.2946 48.9749 87.0419 49.3152 86.9759 49.7128C86.9178 50.1054 86.9784 50.527 87.1575 50.9778C87.3395 51.4157 87.6174 51.925 87.9912 52.5058C88.3751 53.1022 88.7337 53.5818 89.067 53.9444C89.3953 54.2992 89.754 54.5289 90.1433 54.6335C90.5275 54.7303 90.9393 54.6373 91.3788 54.3544C91.8183 54.0715 92.0736 53.7352 92.1446 53.3454C92.2105 52.9477 92.15 52.5261 91.963 52.0804C91.7709 51.6268 91.4829 51.1018 91.099 50.5053Z" fill="#C7F5E5"/>
<path d="M80.1474 57.3549C79.0999 57.452 78.3009 57.0728 77.7502 56.2173C77.4775 55.7935 77.3359 55.3408 77.3255 54.8591C77.3179 54.3645 77.4643 53.8762 77.7646 53.3943C78.0677 52.8995 78.5332 52.4501 79.161 52.046C79.7889 51.6418 80.3868 51.4068 80.9548 51.3409C81.5257 51.262 82.0307 51.331 82.4699 51.5478C82.9119 51.7516 83.2693 52.0655 83.5421 52.4893C83.82 52.9209 83.959 53.3697 83.9593 53.8357C83.9545 54.2939 83.8336 54.7269 83.5966 55.1347C84.1495 55.0453 84.6638 55.1027 85.1395 55.3071C85.6151 55.5115 86.0121 55.861 86.3303 56.3554C86.6738 56.8891 86.8371 57.4444 86.82 58.0215C86.8058 58.5856 86.6314 59.1252 86.2969 59.6402C85.9624 60.1552 85.5009 60.6021 84.9123 60.981C84.3236 61.3599 83.7257 61.5949 83.1184 61.6861C82.519 61.7723 81.9557 61.7075 81.4284 61.4919C80.9039 61.2634 80.4699 60.8824 80.1264 60.3487C79.8082 59.8543 79.6545 59.3482 79.6654 58.8306C79.6713 58.3052 79.832 57.8133 80.1474 57.3549ZM82.0927 53.7552C81.8451 53.3707 81.5355 53.1482 81.1636 53.0879C80.7996 53.0225 80.4175 53.1186 80.0173 53.3762C79.6249 53.6288 79.3791 53.9368 79.2801 54.3003C79.1889 54.6586 79.2696 55.034 79.5221 55.4265C79.7495 55.7796 80.049 55.9864 80.4209 56.0467C80.8006 56.102 81.1788 56.0084 81.5555 55.766C81.9322 55.5235 82.174 55.218 82.2809 54.8495C82.3827 54.4731 82.32 54.1084 82.0927 53.7552ZM82.3284 56.9667C81.881 57.2547 81.5893 57.6034 81.4533 58.0128C81.3251 58.4172 81.3974 58.8313 81.6702 59.2551C81.9228 59.6475 82.2633 59.8834 82.6918 59.9628C83.1231 60.0293 83.5702 59.9135 84.0333 59.6154C84.4963 59.3174 84.7804 58.9569 84.8856 58.534C84.9908 58.1111 84.9196 57.7074 84.6721 57.3229C84.4044 56.9069 84.0599 56.6735 83.6387 56.6228C83.2125 56.5641 82.7757 56.6788 82.3284 56.9667Z" fill="#C7F5E5"/>
<path d="M72.6245 58.6341L71.647 57.1155L74.4841 55.2893L80.008 63.8712L78.3128 64.9624L73.7664 57.8991L72.6245 58.6341Z" fill="#C7F5E5"/>
<path d="M18.4648 40.9177L20.532 42.2326L22.2978 39.4567L23.609 40.2907L21.8432 43.0667L24.0285 44.4568L26.0198 41.3265L27.3664 42.1831L24.3232 46.9672L16.0662 41.7148L19.1094 36.9307L20.456 37.7873L18.4648 40.9177Z" fill="#8D8D8F"/>
<path d="M20.6151 49.901L22.3434 47.1841L23.6546 48.0182L20.8744 52.3889L12.6292 47.144L13.6811 45.4903L20.6151 49.901Z" fill="#8D8D8F"/>
<path d="M14.7927 52.6116C15.1748 52.2021 15.6501 51.9679 16.2185 51.9091C16.7868 51.8503 17.3151 51.9762 17.8034 52.2868C18.2444 52.5673 18.5641 52.9255 18.7625 53.3614C18.958 53.7844 19.02 54.2608 18.9485 54.7905C18.877 55.3203 18.6634 55.8647 18.3077 56.4238L16.046 59.9794L7.80078 54.7346L9.96484 51.3326C10.3205 50.7734 10.7166 50.3507 11.1532 50.0643C11.5949 49.77 12.0422 49.6231 12.4954 49.6238C12.9535 49.6165 13.3873 49.7431 13.7968 50.0036C14.2772 50.3092 14.5962 50.6946 14.7537 51.1599C14.9163 51.6173 14.9293 52.1012 14.7927 52.6116ZM12.2548 55.2449L13.2166 53.7329C13.4671 53.3391 13.5733 52.9808 13.5353 52.658C13.4894 52.3302 13.3011 52.061 12.9704 51.8506C12.6396 51.6402 12.316 51.5838 11.9997 51.6812C11.6833 51.7786 11.3999 52.0242 11.1494 52.4179L10.1876 53.9299L12.2548 55.2449ZM16.8108 55.8035C17.0663 55.4019 17.1697 55.0307 17.1209 54.6899C17.0772 54.3413 16.8821 54.0568 16.5356 53.8364C16.1812 53.611 15.8304 53.5538 15.4833 53.6648C15.1282 53.7708 14.823 54.0246 14.5675 54.4263L13.5306 56.0564L15.7513 57.4691L16.8108 55.8035Z" fill="#8D8D8F"/>
<path d="M6.76144 56.3687L15.0067 61.6135L13.9547 63.2673L5.70947 58.0225L6.76144 56.3687Z" fill="#8D8D8F"/>
<path d="M11.9328 66.4459L6.35052 67.1094L10.0243 69.4463L8.97228 71.1L0.727051 65.8552L1.77902 64.2015L5.47638 66.5534L3.6876 61.201L4.95748 59.2047L6.8806 65.2066L13.2628 64.355L11.9328 66.4459Z" fill="#8D8D8F"/>
<path d="M60.7382 7.05448C60.3546 6.78683 59.9395 6.64436 59.4929 6.62707C59.0463 6.60978 58.5891 6.71769 58.1213 6.95082C57.6034 7.20891 57.2022 7.55482 56.9178 7.98854C56.6334 8.42225 56.4866 8.9125 56.4776 9.45928C56.4685 10.0061 56.6055 10.5635 56.8886 11.1315C57.18 11.7163 57.5467 12.1696 57.9887 12.4916C58.439 12.8094 58.9272 12.9833 59.4531 13.0132C59.9789 13.0432 60.5134 12.9228 61.0564 12.6522C61.7246 12.3192 62.1844 11.8711 62.4356 11.308C62.6826 10.7364 62.7147 10.1 62.532 9.39848L59.5248 10.8971L58.8566 9.55637L63.5931 7.19603L64.3549 8.72472C64.5418 9.39281 64.5722 10.0816 64.446 10.791C64.3199 11.5004 64.031 12.1658 63.5794 12.7871C63.1319 13.3959 62.5323 13.8876 61.7805 14.2623C60.9368 14.6827 60.0788 14.8757 59.2064 14.8411C58.3383 14.794 57.5393 14.53 56.8095 14.049C56.0881 13.5639 55.513 12.8911 55.0842 12.0307C54.6554 11.1703 54.4646 10.306 54.5116 9.43788C54.5629 8.55723 54.8332 7.76036 55.3225 7.04726C55.816 6.32164 56.4804 5.75069 57.3158 5.3344C58.3015 4.84319 59.2785 4.65875 60.2467 4.78108C61.2107 4.89507 62.047 5.31775 62.7556 6.04915L60.7382 7.05448Z" fill="#8D8D8F"/>
<path d="M247.941 55.8041C248.144 56.3259 248.15 56.8557 247.956 57.3935C247.763 57.9312 247.421 58.3529 246.93 58.6584C246.486 58.9344 246.024 59.0674 245.546 59.0574C245.08 59.0504 244.623 58.9 244.177 58.6061C243.73 58.3122 243.332 57.8839 242.982 57.3211L240.757 53.7425L249.056 48.5825L251.185 52.0066C251.535 52.5693 251.744 53.1095 251.813 53.6271C251.887 54.1526 251.826 54.6194 251.629 55.0275C251.437 55.4436 251.135 55.7798 250.723 56.0361C250.239 56.3367 249.754 56.4573 249.266 56.3978C248.783 56.3462 248.342 56.1483 247.941 55.8041ZM246.667 52.376L247.613 53.8979C247.859 54.2942 248.136 54.5451 248.444 54.6507C248.759 54.7513 249.083 54.6982 249.416 54.4912C249.749 54.2842 249.94 54.017 249.989 53.6896C250.038 53.3623 249.94 53.0005 249.693 52.6042L248.747 51.0823L246.667 52.376ZM244.19 56.2406C244.441 56.6448 244.731 56.8988 245.059 57.0024C245.392 57.114 245.733 57.0614 246.082 56.8445C246.439 56.6227 246.642 56.3314 246.692 55.9704C246.751 55.6044 246.654 55.2194 246.403 54.8151L245.383 53.1744L243.147 54.5643L244.19 56.2406Z" fill="#8D8D8F"/>
<path d="M12.5952 200.7C12.0819 199.81 11.8053 198.93 11.7656 198.059C11.7211 197.179 11.9172 196.371 12.3539 195.634C12.7777 194.893 13.414 194.278 14.2627 193.788C15.1115 193.298 15.9624 193.054 16.8156 193.058C17.6561 193.057 18.4461 193.296 19.1857 193.775C19.9206 194.245 20.5447 194.924 21.058 195.814L22.766 198.772L14.3032 203.658L12.5952 200.7ZM19.6502 196.707C19.1369 195.818 18.4977 195.271 17.7328 195.066C16.9678 194.861 16.1448 195.013 15.2637 195.522C14.3827 196.03 13.8357 196.669 13.6226 197.439C13.4015 198.213 13.5476 199.045 14.0609 199.934L14.7539 201.135L20.3432 197.908L19.6502 196.707Z" fill="#8D8D8F"/>
<path d="M200.236 237.75L205.493 239.743L203.316 235.972L205.013 234.992L209.899 243.455L208.202 244.435L206.011 240.64L205.122 246.213L203.073 247.396L204.143 241.185L198.09 238.989L200.236 237.75Z" fill="#8D8D8F"/>
<path d="M53.3725 165.839C52.729 166.253 52.0825 166.37 51.433 166.189C50.7784 165.999 50.2314 165.563 49.7919 164.881C49.3575 164.206 49.1962 163.533 49.3079 162.861C49.4119 162.195 49.7817 161.657 50.4174 161.248C51.0609 160.834 51.7139 160.719 52.3763 160.903C53.0336 161.079 53.582 161.509 54.0215 162.191C54.4559 162.866 54.6173 163.54 54.5055 164.211C54.3937 164.882 54.0161 165.425 53.3725 165.839ZM51.2626 162.535C50.8781 162.783 50.6469 163.071 50.5692 163.398C50.4836 163.731 50.5317 164.038 50.7135 164.321C50.8903 164.595 51.1478 164.763 51.486 164.822C51.8164 164.887 52.1738 164.796 52.5584 164.548C52.9351 164.306 53.1648 164.025 53.2477 163.705C53.3254 163.378 53.2734 163.073 53.0915 162.79C52.9147 162.515 52.6611 162.346 52.3308 162.281C51.9954 162.208 51.6393 162.293 51.2626 162.535Z" fill="#C7F5E5"/>
<path d="M59.8754 171.984C58.5177 172.858 57.2977 173.299 56.2154 173.308C55.128 173.308 54.2181 172.74 53.4856 171.602C52.7531 170.464 52.6148 169.404 53.0707 168.422C53.5216 167.433 54.4259 166.501 55.7836 165.627C57.1492 164.748 58.3796 164.306 59.4748 164.3C60.5649 164.287 61.4763 164.849 62.2087 165.987C62.9412 167.125 63.0781 168.191 62.6194 169.186C62.1556 170.172 61.241 171.105 59.8754 171.984ZM56.8293 167.252C56.2485 167.626 55.7872 167.978 55.4453 168.309C55.0905 168.637 54.8608 168.996 54.7562 169.385C54.6465 169.767 54.7331 170.177 55.016 170.617C55.2989 171.056 55.6391 171.309 56.0368 171.375C56.4293 171.433 56.851 171.372 57.3018 171.193C57.7397 171.011 58.249 170.733 58.8297 170.36C59.4262 169.976 59.9057 169.617 60.2684 169.284C60.6232 168.956 60.8529 168.597 60.9575 168.208C61.0543 167.823 60.9613 167.412 60.6784 166.972C60.3955 166.533 60.0591 166.277 59.6694 166.206C59.2717 166.14 58.85 166.201 58.4043 166.388C57.9508 166.58 57.4258 166.868 56.8293 167.252Z" fill="#C7F5E5"/>
<path d="M65.3806 176.166C65.6855 175.881 65.8614 175.567 65.9083 175.227C65.9423 174.883 65.838 174.522 65.5956 174.146C65.2824 173.659 64.8549 173.435 64.3132 173.473C63.7637 173.516 63.0102 173.845 62.0527 174.462C62.42 174.48 62.7804 174.609 63.1338 174.848C63.4822 175.079 63.7777 175.383 64.0201 175.759C64.3434 176.262 64.5344 176.782 64.593 177.322C64.6388 177.858 64.5334 178.376 64.2768 178.874C64.0124 179.377 63.5859 179.818 62.9973 180.197C62.1262 180.758 61.2688 180.943 60.4253 180.754C59.5739 180.569 58.8603 180.029 58.2844 179.135C57.5671 178.02 57.419 177.006 57.8402 176.091C58.2563 175.168 59.1825 174.245 60.6187 173.32C61.6389 172.663 62.5328 172.216 63.3004 171.977C64.063 171.73 64.7519 171.714 65.3672 171.929C65.9774 172.135 66.52 172.607 66.9948 173.345C67.3686 173.926 67.577 174.491 67.62 175.04C67.655 175.595 67.5628 176.098 67.3432 176.551C67.1108 177 66.7849 177.382 66.3656 177.696L65.3806 176.166ZM62.4584 176.282C62.1957 175.874 61.863 175.633 61.4603 175.559C61.0576 175.485 60.6444 175.585 60.2206 175.857C59.7575 176.155 59.4813 176.511 59.3918 176.924C59.2894 177.334 59.3746 177.75 59.6474 178.174C59.9202 178.598 60.2708 178.85 60.6993 178.929C61.1149 179.006 61.5385 178.905 61.9702 178.627C62.3861 178.359 62.6517 178.022 62.767 177.615C62.8694 177.205 62.7665 176.76 62.4584 176.282Z" fill="#C7F5E5"/>
<path d="M209.424 85.3993C210.068 84.9851 210.714 84.8686 211.364 85.0499C212.018 85.2391 212.565 85.6751 213.005 86.3579C213.439 87.0328 213.6 87.7059 213.489 88.3773C213.385 89.0435 213.015 89.5813 212.379 89.9904C211.736 90.4047 211.083 90.5197 210.42 90.3356C209.763 90.1593 209.215 89.7298 208.775 89.047C208.341 88.3721 208.179 87.699 208.291 87.0276C208.403 86.3563 208.781 85.8135 209.424 85.3993ZM211.534 88.7031C211.919 88.4556 212.15 88.168 212.227 87.8405C212.313 87.5079 212.265 87.2003 212.083 86.9178C211.906 86.6431 211.649 86.4759 211.311 86.4161C210.98 86.3512 210.623 86.4425 210.238 86.6901C209.862 86.9325 209.632 87.2136 209.549 87.5333C209.471 87.8609 209.523 88.1659 209.705 88.4484C209.882 88.7231 210.135 88.8929 210.466 88.9577C210.801 89.0304 211.157 88.9456 211.534 88.7031Z" fill="#C7F5E5"/>
<path d="M202.921 79.2543C204.279 78.3804 205.499 77.9392 206.581 77.9307C207.669 77.9301 208.579 78.4988 209.311 79.6367C210.044 80.7747 210.182 81.8345 209.726 82.8161C209.275 83.8056 208.371 84.7373 207.013 85.6113C205.647 86.4902 204.417 86.9326 203.322 86.9382C202.232 86.9518 201.32 86.3896 200.588 85.2516C199.855 84.1136 199.719 83.0474 200.177 82.0528C200.641 81.0661 201.556 80.1333 202.921 79.2543ZM205.967 83.9867C206.548 83.6129 207.009 83.2604 207.351 82.9294C207.706 82.6011 207.936 82.2424 208.04 81.8531C208.15 81.4717 208.064 81.0613 207.781 80.6218C207.498 80.1823 207.158 79.9296 206.76 79.8636C206.367 79.8055 205.946 79.8661 205.495 80.0452C205.057 80.2272 204.548 80.505 203.967 80.8789C203.37 81.2628 202.891 81.6214 202.528 81.9547C202.173 82.283 201.944 82.6417 201.839 83.031C201.742 83.4152 201.835 83.827 202.118 84.2665C202.401 84.706 202.737 84.9613 203.127 85.0322C203.525 85.0982 203.947 85.0377 204.392 84.8507C204.846 84.6586 205.371 84.3706 205.967 83.9867Z" fill="#C7F5E5"/>
<path d="M205.217 76.3804L195.868 77.9698L194.792 76.2981L203.968 74.8536L201.377 70.8275L202.789 69.9182L206.442 75.5924L205.217 76.3804Z" fill="#C7F5E5"/>
<path d="M192.21 68.1998C193.322 68.5491 194.231 68.8135 194.935 68.9931C195.646 69.1677 196.326 69.2576 196.973 69.2628C197.62 69.268 198.163 69.1292 198.603 68.8463C199.003 68.5887 199.257 68.2925 199.363 67.9576C199.469 67.6228 199.396 67.2591 199.144 66.8667C198.891 66.4743 198.563 66.258 198.16 66.2179C197.764 66.1727 197.337 66.2927 196.876 66.5778L195.846 64.9768C196.808 64.402 197.701 64.2209 198.526 64.4335C199.356 64.654 200.034 65.1724 200.56 65.9886C201.135 66.8832 201.338 67.724 201.168 68.5109C201.005 69.2927 200.535 69.9337 199.758 70.4338C199.146 70.8278 198.455 71.0394 197.686 71.0684C196.916 71.0975 196.187 71.0339 195.498 70.8779C194.818 70.7168 193.967 70.4817 192.947 70.1728L195.182 73.6455L193.817 74.5245L190.073 68.7091L191.298 67.921L192.21 68.1998Z" fill="#C7F5E5"/>
<path d="M176.094 199.294C176.508 199.938 176.625 200.584 176.443 201.234C176.254 201.888 175.818 202.435 175.135 202.875C174.46 203.309 173.787 203.47 173.116 203.359C172.45 203.255 171.912 202.885 171.503 202.249C171.088 201.606 170.973 200.953 171.158 200.29C171.334 199.633 171.763 199.084 172.446 198.645C173.121 198.211 173.794 198.049 174.466 198.161C175.137 198.273 175.68 198.65 176.094 199.294ZM172.79 201.404C173.038 201.788 173.325 202.02 173.653 202.097C173.985 202.183 174.293 202.135 174.575 201.953C174.85 201.776 175.017 201.519 175.077 201.18C175.142 200.85 175.051 200.493 174.803 200.108C174.561 199.731 174.28 199.502 173.96 199.419C173.632 199.341 173.327 199.393 173.045 199.575C172.77 199.752 172.6 200.005 172.535 200.336C172.463 200.671 172.548 201.027 172.79 201.404Z" fill="#C7F5E5"/>
<path d="M182.239 192.791C183.113 194.149 183.554 195.369 183.562 196.451C183.563 197.539 182.994 198.448 181.856 199.181C180.718 199.913 179.659 200.052 178.677 199.596C177.688 199.145 176.756 198.241 175.882 196.883C175.003 195.517 174.561 194.287 174.555 193.192C174.541 192.102 175.104 191.19 176.242 190.458C177.38 189.725 178.446 189.588 179.44 190.047C180.427 190.511 181.36 191.426 182.239 192.791ZM177.506 195.837C177.88 196.418 178.233 196.879 178.564 197.221C178.892 197.576 179.251 197.806 179.64 197.91C180.021 198.02 180.432 197.933 180.871 197.651C181.311 197.368 181.564 197.027 181.63 196.63C181.688 196.237 181.627 195.815 181.448 195.365C181.266 194.927 180.988 194.418 180.614 193.837C180.23 193.24 179.872 192.761 179.538 192.398C179.21 192.043 178.851 191.814 178.462 191.709C178.078 191.612 177.666 191.705 177.227 191.988C176.787 192.271 176.532 192.607 176.461 192.997C176.395 193.395 176.455 193.816 176.642 194.262C176.835 194.716 177.123 195.241 177.506 195.837Z" fill="#C7F5E5"/>
</svg>
