<?xml version="1.0" encoding="utf-8"?><!-- Uploaded to: SVG Repo, www.svgrepo.com, Generator: SVG Repo Mixer Tools -->
<svg fill="#000000" width="800px" height="800px" viewBox="0 0 1024 1024" xmlns="http://www.w3.org/2000/svg"><path d="M953.34 438.431H820.715c-13.219 0-24.771-8.566-28.833-21.056a287.154 287.154 0 00-15.044-37.243c-5.623-11.608-3.402-25.507 5.785-34.725l93.467-93.457c3.603-3.606 3.603-9.45.007-13.049l-91.012-91.002c-3.593-3.596-9.428-3.596-13.028.006l-93.137 93.137c-9.235 9.235-23.241 11.437-34.893 5.702a286.77 286.77 0 00-37.487-15.314c-12.449-4.069-20.97-15.623-20.97-28.808V70.661a9.221 9.221 0 00-9.22-9.22H447.652a9.221 9.221 0 00-9.22 9.22v134.936c0 12.884-8.139 24.247-20.169 28.539-12.09 4.337-23.758 9.406-34.928 15.18-11.721 6.057-26.027 3.952-35.417-5.438l-95.973-95.973a9.21 9.21 0 00-13.035.001L147.906 238.9a9.218 9.218 0 000 13.044l99.221 99.221c9.067 9.037 11.39 22.701 6.062 34.233a287.871 287.871 0 00-12.483 31.962c-4.053 12.493-15.632 21.071-28.861 21.071H70.662a9.221 9.221 0 00-9.22 9.22v128.688a9.221 9.221 0 009.22 9.22h144.803c12.851 0 24.184 8.096 28.533 20.086a285.852 285.852 0 0012.302 28.863c5.703 11.647 3.502 25.653-5.737 34.892L147.9 772.063c-3.597 3.594-3.597 9.424.005 13.027l91.012 91.002c3.594 3.597 9.424 3.597 13.028-.006l103.008-103.008c9.215-9.185 23.175-11.413 34.781-5.745a287.088 287.088 0 0028.572 12.04c12.01 4.345 20.127 15.679 20.127 28.55V953.34a9.221 9.221 0 009.22 9.22h128.698a9.221 9.221 0 009.22-9.22V810.907c0-13.197 8.531-24.752 20.982-28.832a290.388 290.388 0 0031.081-12.211c11.534-5.328 25.182-3.01 34.226 6.034l100.205 100.195c3.593 3.596 9.428 3.596 13.028-.007l90.998-90.988c3.602-3.605 3.602-9.444.006-13.04l-96.949-96.949c-9.367-9.398-11.469-23.689-5.42-35.393 5.628-10.907 10.588-22.283 14.869-34.1 4.355-11.977 15.674-20.056 28.509-20.056h136.235a9.221 9.221 0 009.22-9.22V447.652a9.221 9.221 0 00-9.22-9.22zm0-40.96c27.713 0 50.18 22.467 50.18 50.18v128.688c0 27.713-22.467 50.18-50.18 50.18H824.502a329.929 329.929 0 01-10.926 25.092l91.482 91.482c19.589 19.589 19.589 51.354-.001 70.961l-90.998 90.988c-19.592 19.609-51.381 19.609-70.966.007l-95.004-94.994a331.648 331.648 0 01-21.562 8.483V953.34c0 27.713-22.467 50.18-50.18 50.18H447.649c-27.713 0-50.18-22.467-50.18-50.18V815.322a327.445 327.445 0 01-18.881-7.956l-97.683 97.683c-19.601 19.601-51.375 19.601-70.959.001l-91.006-90.996c-19.601-19.601-19.601-51.375 0-70.96l97.335-97.335a326.356 326.356 0 01-8.191-19.24H70.659c-27.713 0-50.18-22.467-50.18-50.18V447.651c0-27.713 22.467-50.18 50.18-50.18h133.523a328.832 328.832 0 018.805-22.517l-94.047-94.047c-19.6-19.6-19.6-51.37.001-70.971l90.998-90.988c19.591-19.608 51.365-19.608 70.966-.006l90.524 90.524a328.546 328.546 0 0126.041-11.3V70.661c0-27.713 22.467-50.18 50.18-50.18h128.698c27.713 0 50.18 22.467 50.18 50.18v124.312a327.958 327.958 0 0128.775 11.758l87.784-87.784c19.592-19.609 51.381-19.609 70.965-.007l91.012 91.002c19.582 19.599 19.582 51.359-.007 70.965l-88.152 88.143a327.948 327.948 0 0111.487 28.421h124.947zM655.36 506.88c0 82.007-66.473 148.48-148.48 148.48S358.4 588.887 358.4 506.88c0-82.007 66.473-148.48 148.48-148.48s148.48 66.473 148.48 148.48zm-40.96 0c0-59.386-48.134-107.52-107.52-107.52s-107.52 48.134-107.52 107.52c0 59.386 48.134 107.52 107.52 107.52S614.4 566.266 614.4 506.88z"/></svg>