<!DOCTYPE svg PUBLIC "-//W3C//DTD SVG 1.1//EN" "http://www.w3.org/Graphics/SVG/1.1/DTD/svg11.dtd">

<!-- Uploaded to: SVG Repo, www.svgrepo.com, Transformed by: SVG Repo Mixer Tools -->
<svg version="1.1" id="Layer_1" xmlns="http://www.w3.org/2000/svg" xmlns:xlink="http://www.w3.org/1999/xlink" viewBox="0 0 512 512" xml:space="preserve" width="800px" height="800px" fill="#000000">

<g id="SVGRepo_bgCarrier" stroke-width="0"/>

<g id="SVGRepo_tracerCarrier" stroke-linecap="round" stroke-linejoin="round"/>

<g id="SVGRepo_iconCarrier"> <path style="fill:#ffffff;" d="M89.881,274.863h138.278c4.039-9.321,6.283-19.612,6.283-30.434 c0-26.495-13.431-49.824-33.801-63.447c-14.43-9.651-27.916-20.642-39.715-33.376l-1.937-2.09l-0.451,0.486 c-12.427,13.412-26.591,25.033-41.707,35.32c-20.928,14.243-34.391,38.79-33.225,66.427 C84.011,257.341,86.221,266.487,89.881,274.863z"/> <path style="fill:#ACABB1;" d="M226.383,210.189h-0.078c-1.477-2.021-13.833-21.295-25.664-29.208 c-11.118-7.436-21.668-15.68-31.327-24.892c-7.746,14.93-11.612,31.879-10.871,49.452c0.066,1.555,0.171,3.104,0.31,4.648h-32.102 v43.116H84.067c0.882,7.57,2.868,14.816,5.814,21.558h138.278c4.039-9.321,6.283-19.612,6.283-30.434 C234.442,232.112,231.536,220.481,226.383,210.189z"/> <path style="fill:#ffffff;" d="M283.902,274.863H422.18c4.039-9.321,6.283-19.612,6.283-30.434 c0-26.495-13.431-49.824-33.801-63.447c-14.43-9.651-27.916-20.642-39.715-33.376l-1.937-2.09l-0.451,0.486 c-12.427,13.412-26.591,25.033-41.707,35.32c-20.928,14.243-34.391,38.79-33.225,66.427 C278.032,257.341,280.242,266.487,283.902,274.863z"/> <path style="fill:#ACABB1;" d="M385.347,253.305v-43.116h-32.102c0.139-1.544,0.245-3.092,0.31-4.648 c0.742-17.573-3.125-34.522-10.871-49.452h-0.148c-9.828,9.263-20.493,17.616-31.684,25.232 c-20.928,14.243-34.391,38.79-33.226,66.427c0.404,9.592,2.614,18.737,6.274,27.113h138.216c2.946-6.742,4.932-13.988,5.814-21.558 H385.347z"/> <path style="fill:#ffffff;" d="M186.258,231.747h138.278c4.039-9.321,6.283-19.612,6.283-30.434 c0-26.495-13.431-49.824-33.801-63.447c-14.43-9.651-27.916-20.642-39.715-33.376l-1.937-2.09l-0.451,0.486 c-12.427,13.412-26.591,25.033-41.707,35.32c-20.928,14.243-34.391,38.79-33.225,66.427 C180.388,214.225,182.598,223.371,186.258,231.747z"/> <path style="fill:#ACABB1;" d="M256,210.189c-28.378,0-54.189-10.972-73.437-28.897c-1.995,7.394-2.921,15.233-2.579,23.342 c0.404,9.592,2.614,18.737,6.274,27.113h138.278c4.039-9.321,6.283-19.612,6.283-30.434c0-6.589-0.832-12.983-2.394-19.08 C309.288,199.603,283.881,210.189,256,210.189z"/> <polygon style="fill:#26C687;" points="458.644,220.968 458.644,274.863 363.789,274.863 363.789,231.747 148.211,231.747 148.211,274.863 53.356,274.863 53.356,220.968 10.24,220.968 10.24,425.768 53.356,425.768 148.211,425.768 363.789,425.768 458.644,425.768 501.76,425.768 501.76,220.968 "/> <path style="fill:#ACABB1;" d="M320.674,425.768H191.326v-84.715c0-14.416,7.205-27.878,19.199-35.875L256,274.863l45.474,30.316 c11.995,7.997,19.199,21.459,19.199,35.875V425.768z"/> <path style="fill:#ffffff;" d="M458.483,220.968h43.459c1.27-2.93,1.975-6.164,1.975-9.565c0-8.241-4.134-15.506-10.423-19.805 c-4.625-3.161-9.01-6.662-12.818-10.771l-0.472-0.51l-0.478,0.515c-3.693,3.985-7.849,7.517-12.398,10.489 c-6.791,4.436-11.19,12.277-10.817,21.127C456.637,215.461,457.332,218.336,458.483,220.968z"/> <path d="M82.475,278.1c-4.169-9.543-6.506-19.639-6.943-30.01c-1.244-29.485,12.496-56.943,36.754-73.452 c15.848-10.785,29.038-21.95,40.325-34.132l6.379-6.887l7.868,8.49c2.679,2.891,5.529,5.771,8.472,8.561l-11.124,11.736 c-1.788-1.696-3.546-3.422-5.258-5.166c-10.84,10.871-23.197,20.986-37.566,30.765c-19.602,13.34-30.704,35.548-29.697,59.404 c0.354,8.366,2.239,16.513,5.605,24.217L82.475,278.1z"/> <path d="M429.525,278.1l-14.816-6.474c3.366-7.704,5.253-15.853,5.605-24.218c1.007-23.856-10.096-46.063-29.697-59.403 c-14.369-9.779-26.725-19.894-37.566-30.765c-1.712,1.744-3.47,3.471-5.258,5.166l-11.123-11.735 c2.944-2.791,5.794-5.671,8.471-8.561l7.869-8.491l6.38,6.887c11.286,12.18,24.476,23.345,40.324,34.132 c24.258,16.509,37.998,43.967,36.754,73.451C436.031,258.461,433.695,268.557,429.525,278.1z"/> <path style="fill:#787680;" d="M301.474,305.179L256,274.863l-45.474,30.316c-11.995,7.997-19.199,21.459-19.199,35.875v43.116 c0-14.416,7.205-27.878,19.199-35.875L256,317.979l45.474,30.316c11.995,7.997,19.199,21.459,19.199,35.875v-43.116 C320.674,326.638,313.469,313.176,301.474,305.179z"/> <path style="fill:#ffffff;" d="M53.517,220.968H10.059c-1.27-2.93-1.975-6.164-1.975-9.565c0-8.241,4.134-15.506,10.423-19.805 c4.625-3.161,9.01-6.662,12.818-10.771l0.472-0.51l0.478,0.515c3.693,3.985,7.849,7.517,12.398,10.489 c6.791,4.436,11.19,12.277,10.817,21.127C55.363,215.461,54.668,218.336,53.517,220.968z"/> <g> <rect x="53.356" y="274.863" style="fill:#26C687;" width="30.181" height="150.905"/> <rect x="428.463" y="274.863" style="fill:#26C687;" width="30.181" height="150.905"/> <rect x="126.653" y="274.863" style="fill:#26C687;" width="21.558" height="150.905"/> <rect x="363.789" y="274.863" style="fill:#26C687;" width="21.558" height="150.905"/> </g> <g> <path style="fill:#FFFFFF;" d="M177.853,361.095h-16.168v-16.168h16.168V361.095z M177.853,328.758h-16.168v-43.116h16.168V328.758 z"/> <path style="fill:#FFFFFF;" d="M307.2,199.411h-16.168c0-3.805-0.36-7.586-1.071-11.238l15.871-3.088 C306.74,189.752,307.2,194.572,307.2,199.411z M285.546,174.883C279.026,161.556,267.981,153.6,256,153.6v-16.168 c18.026,0,34.912,11.628,44.07,30.346L285.546,174.883z"/> </g> <rect x="10.24" y="425.768" style="fill:#ACABB1;" width="491.52" height="32.337"/> <path d="M512,211.403c0-10.611-5.213-20.51-13.946-26.48c-4.703-3.214-8.449-6.352-11.45-9.592l-6.402-6.909l-6.407,6.916 c-3.275,3.534-6.938,6.634-10.889,9.215c-9.402,6.142-14.948,16.961-14.473,28.235c0.147,3.495,0.863,6.907,2.127,10.165v43.826 h-17.027c1.678-6.085,2.668-12.334,2.935-18.689c1.244-29.484-12.496-56.942-36.754-73.451 c-15.354-10.449-28.206-21.256-39.255-32.995V91.621H344.29v51.394c-2.43,2.586-4.983,5.158-7.621,7.657l11.123,11.735 c1.788-1.696,3.546-3.422,5.258-5.166c10.84,10.871,23.197,20.986,37.566,30.765c19.602,13.34,30.704,35.548,29.697,59.403 c-0.28,6.632-1.539,13.124-3.72,19.371h-44.72v-35.033v-8.084v-24.253h-16.168v24.253h-19.799c1.979-7.238,2.997-14.713,2.997-22.35 c0-28.277-13.977-54.508-37.39-70.167c-14.633-9.786-26.879-20.027-37.429-31.26V48.505h-16.168v50.023 c-11.049,11.739-23.903,22.546-39.255,32.994c-24.258,16.509-37.997,43.967-36.754,73.451c0.267,6.354,1.257,12.605,2.935,18.689 h-18.547v-24.252h-16.168v24.253v8.084v35.032H95.406c-2.181-6.246-3.44-12.737-3.72-19.37 c-1.007-23.856,10.096-46.063,29.697-59.404c14.369-9.779,26.725-19.894,37.566-30.765c1.712,1.744,3.47,3.471,5.258,5.166 l11.123-11.735c-2.637-2.499-5.19-5.07-7.621-7.656V91.621H151.54v50.023c-11.05,11.739-23.902,22.546-39.255,32.994 c-24.258,16.509-37.998,43.967-36.754,73.452c0.268,6.354,1.257,12.604,2.935,18.689H61.44v-43.828 c1.263-3.257,1.979-6.67,2.127-10.163c0.475-11.275-5.07-22.095-14.473-28.235c-3.95-2.58-7.614-5.681-10.888-9.214l-6.408-6.917 l-6.403,6.91c-3.002,3.239-6.747,6.377-11.45,9.592C5.213,190.893,0,200.792,0,211.403c0,3.999,0.729,7.886,2.156,11.577v194.704 v16.168v32.337h507.688v-32.337v-16.168V222.98C511.271,219.289,512,215.402,512,211.403z M471.748,198.088 c2.967-1.939,5.807-4.104,8.488-6.472c2.588,2.246,5.47,4.451,8.693,6.654c4.321,2.954,6.902,7.863,6.902,13.132 c0,0.498-0.023,0.992-0.067,1.481h-31.125c-0.024-0.259-0.041-0.517-0.052-0.778C464.347,206.415,467.024,201.174,471.748,198.088z M450.56,282.947v134.737h-14.013v-88.926h-16.168v88.926h-16.168v-88.926h-16.168v88.926h-16.168V282.947H450.56z M188.06,204.293 c-0.9-21.332,7.887-41.338,23.768-54.872c6.025,4.623,12.687,8.262,19.924,10.815l5.378-15.248 c-4.086-1.441-7.94-3.326-11.542-5.628c11.083-8.064,20.921-16.396,29.736-25.236c8.868,9.021,19.043,17.626,30.338,25.698 c-3.388,2.089-6.988,3.823-10.794,5.165l5.378,15.248c6.966-2.458,13.399-5.923,19.247-10.303 c14.685,12.841,23.24,31.48,23.24,51.38c0,7.696-1.25,15.192-3.723,22.35H191.763C189.583,217.419,188.339,210.925,188.06,204.293z M156.295,239.832h24.674h148.876h25.861v26.947v150.905h-26.947v-76.631c0-17.158-8.523-33.083-22.8-42.601L256,265.147 l-49.958,33.306c-14.277,9.518-22.8,25.443-22.8,42.601v76.631h-26.947V266.779V239.832z M312.589,417.684H199.411v-76.631 c0-11.739,5.831-22.636,15.599-29.148L256,284.578l40.99,27.327c9.768,6.513,15.599,17.408,15.599,29.148V417.684z M140.126,282.947 v134.737h-16.168v-88.926h-16.168v88.926H91.621v-88.926H75.453v88.926H61.44V282.947H140.126z M23.07,198.271 c3.224-2.203,6.105-4.409,8.693-6.655c2.682,2.368,5.52,4.533,8.488,6.472c4.724,3.085,7.401,8.326,7.162,14.018 c-0.011,0.26-0.028,0.52-0.052,0.777H16.235c-0.045-0.489-0.067-0.983-0.067-1.481C16.168,206.134,18.749,201.226,23.07,198.271z M18.324,229.053h26.947v37.726v150.905H18.324V229.053z M493.676,450.021H18.324v-16.168h26.947H61.44h78.686h16.168h26.947 h145.516h26.947h16.168h78.686h16.168h26.947V450.021z M466.728,417.684V266.779v-37.726h26.947v188.632H466.728z"/> <rect x="247.916" y="16.168" width="16.168" height="16.168"/> <rect x="151.541" y="59.284" width="16.168" height="16.168"/> <rect x="344.29" y="59.284" width="16.168" height="16.168"/> <rect x="487.747" y="479.663" width="16.168" height="16.168"/> <rect x="453.481" y="479.663" width="16.168" height="16.168"/> <rect x="419.226" y="479.663" width="16.168" height="16.168"/> <rect x="384.959" y="479.663" width="16.168" height="16.168"/> <rect x="350.704" y="479.663" width="16.168" height="16.168"/> <rect x="316.438" y="479.663" width="16.168" height="16.168"/> <rect x="282.182" y="479.663" width="16.168" height="16.168"/> <rect x="247.916" y="479.663" width="16.168" height="16.168"/> <rect x="213.65" y="479.663" width="16.168" height="16.168"/> <rect x="179.394" y="479.663" width="16.168" height="16.168"/> <rect x="145.128" y="479.663" width="16.168" height="16.168"/> <rect x="110.872" y="479.663" width="16.168" height="16.168"/> <rect x="76.606" y="479.663" width="16.168" height="16.168"/> <rect x="42.35" y="479.663" width="16.168" height="16.168"/> <rect x="8.084" y="479.663" width="16.168" height="16.168"/> <rect x="202.105" y="256" width="16.168" height="16.168"/> <rect x="169.768" y="256" width="16.168" height="16.168"/> <rect x="326.063" y="256" width="16.168" height="16.168"/> <rect x="293.726" y="256" width="16.168" height="16.168"/> <rect x="420.379" y="296.421" width="16.168" height="16.168"/> <rect x="388.042" y="296.421" width="16.168" height="16.168"/> <rect x="107.789" y="296.421" width="16.168" height="16.168"/> <rect x="75.453" y="296.421" width="16.168" height="16.168"/> </g>

</svg>